<svg xmlns="http://www.w3.org/2000/svg" viewBox="0 0 1000 1000"><defs><style>.cls-1{isolation:isolate;}.cls-2,.cls-31{fill:#a8c4e5;}.cls-2{opacity:0.4;mix-blend-mode:multiply;}.cls-3{fill:#d7e8f7;}.cls-16,.cls-24,.cls-34,.cls-4{fill:#fff;}.cls-24,.cls-4{stroke:#add5f7;}.cls-24,.cls-28,.cls-4{stroke-miterlimit:10;}.cls-4{stroke-width:1.06px;}.cls-5{fill:#527ded;}.cls-6{fill:#45bfab;}.cls-7{fill:#dea749;}.cls-8{fill:#3c5cb3;}.cls-9{fill:#d64d7f;}.cls-10{fill:#5986ff;}.cls-11{fill:#4367c7;}.cls-12{fill:#ff5c97;}.cls-13{fill:#f7dd6a;}.cls-14{fill:#2c4482;}.cls-15{fill:#50dec6;}.cls-17{fill:#dbefff;}.cls-18{fill:#5366c4;}.cls-19{fill:#97cbff;}.cls-20{fill:#ebd265;}.cls-21{fill:#353559;}.cls-22{fill:#ffe46e;}.cls-23{fill:#8fc7f7;}.cls-24{stroke-width:1.05px;}.cls-25{fill:#b0daff;}.cls-26{fill:#5980ab;}.cls-27{fill:#88bdeb;}.cls-28,.cls-29,.cls-45{fill:none;}.cls-28{stroke:#a8c4e5;stroke-width:1.51px;}.cls-29{stroke:#2c4482;stroke-width:5.29px;}.cls-29,.cls-45{stroke-linecap:round;stroke-linejoin:round;}.cls-30{fill:#dcf1ff;}.cls-32{fill:#ffc2b0;}.cls-33{fill:#283d75;}.cls-34{opacity:0.46;}.cls-35{fill:#513554;}.cls-36{fill:#fcfeff;}.cls-37{fill:#4264bf;}.cls-38{fill:#715154;}.cls-39{fill:#dcefff;}.cls-40{fill:#d84177;}.cls-41{fill:#66223d;}.cls-42{fill:#add5f7;}.cls-43{fill:#715255;}.cls-44{fill:#ea8a6c;}.cls-45{stroke:#fff;stroke-width:2.11px;}</style></defs><title>business consultancy</title><g class="cls-1"><g id="Layer_1" data-name="Layer 1"><path class="cls-2" d="M538.11,475.27l126.75-73.18a7.1,7.1,0,0,1,7.13,0L973.51,576.17a7.12,7.12,0,0,1,0,12.34L828,672.54Z"/><path class="cls-3" d="M396.37,128.38l27.93-16,23.45,32.38s-20.46,26.08-21.58,27S396.37,128.38,396.37,128.38Z"/><path class="cls-3" d="M855.92,643.2l-4.49-268.75c-.2-12.06-7.35-25.88-16-30.86L435.62,112.74c-8.63-5-15.46.77-15.26,12.83l4.49,271.65c.2,12.07,7.35,25.88,16,30.86L808.74,640.5l-9,22.62L822,675.69l28.35-15.92C854.81,656.71,856,649.23,855.92,643.2Z"/><path class="cls-4" d="M812.07,674.77,412.23,443.92c-8.62-5-15.78-18.79-16-30.86l-4.49-271.64c-.19-12.07,6.64-17.81,15.26-12.83L806.86,359.43c8.62,5,15.77,18.8,16,30.86l4.49,271.65C827.52,674,820.69,679.75,812.07,674.77Z"/><path class="cls-2" d="M324.2,528.26c48-27.7,47.72-72.74-.55-100.61L301,440.73c-47.23-15.87-108.6-12.23-148.83,11-48,27.69-47.73,72.74.54,100.61s126.3,28,174.27.31l-87.41-50.46,19.74-11.4Z"/><path class="cls-5" d="M303,540.5c-48,27.7-126,27.56-174.26-.31s-48.52-72.92-.55-100.62,126-27.55,174.27.32L215.63,490Z"/><path class="cls-6" d="M215.47,490.12l.16-.09L303,540.5c-20.58,11.88-46.19,19.24-74.52,20.34L226,561l-.83-17.36C221.76,526.25,216.87,500.52,215.47,490.12Z"/><polygon class="cls-6" points="302.49 522.38 303.03 540.5 269.11 525.52 302.49 522.38"/><path class="cls-7" d="M302.76,502.19s48.32-25.12,35.82-67.29-35.82,52.48-35.82,52.48Z"/><path class="cls-8" d="M128.77,540.19c-48.28-27.87-48.52-72.92-.55-100.62L215.63,490Z"/><path class="cls-9" d="M302.49,439.89c-48.28-27.87-126.3-28-174.27-.32L215.63,490Z"/><path class="cls-8" d="M215.47,490.13l.16-.09-87.41-50.47c-11.91,6.88-29.77,21.51-35.82,32.2v17.1C132.2,490.74,187.14,488.86,215.47,490.13Z"/><path class="cls-10" d="M303,523.11c-48,27.7-126,27.55-174.26-.32s-48.52-72.91-.55-100.61,126-27.55,174.27.32l-86.86,50.15Z"/><path class="cls-11" d="M128.77,522.79c-48.28-27.87-48.52-72.91-.55-100.61l87.41,50.47Z"/><path class="cls-12" d="M302.49,422.5c-48.28-27.87-126.3-28-174.27-.32l87.41,50.47Z"/><path class="cls-13" d="M302.21,386.77c48.28,27.87,48.52,72.91.55,100.61l-87.41-50.46Z"/><path class="cls-14" d="M215.47,472.74l.16-.09-87.41-50.47c-21.66,12.51-33.49,28.56-35.51,45C132.52,469,187.14,471.47,215.47,472.74Z"/><path class="cls-15" d="M215.47,472.74l.16-.09L303,523.11c-21.66,12.51-49.45,19.34-77.87,20.5C221.93,520.63,217.67,489.09,215.47,472.74Z"/><polygon class="cls-7" points="215.35 436.92 215.35 449.48 302.76 502.19 302.76 487.38 215.35 436.92"/><path class="cls-5" d="M128.77,540.19v-17.4a128.05,128.05,0,0,0,21.45,9.93Z"/><path class="cls-2" d="M329.59,680.67l0-8.95h0c0-1.77-1.07-3.46-3.25-4.72l-80.71-46.77c-4.84-2.8-13.29-2.46-18.88.76L80.4,705.2c-2.91,1.67-4.46,3.79-4.61,5.84l0,0v.36a2.72,2.72,0,0,0,0,.28l.21,7.46h0c-.75,2.28.21,4.59,3,6.21l80.71,46.76a17.32,17.32,0,0,0,9.16,1.88,24.61,24.61,0,0,0,2.56-.24,22.47,22.47,0,0,0,4.94-1.32,17.5,17.5,0,0,0,2.22-1.07L325,687.13c3-1.71,4.53-3.89,4.61-6h0A3.85,3.85,0,0,0,329.59,680.67Z"/><path class="cls-16" d="M65.46,713.16l-.24-8.09,10.44,6.77s-3,7.33-3.27,7.08Z"/><path class="cls-4" d="M149.18,766.13,68.47,719.37c-4.84-2.8-4.22-7.68,1.37-10.9l146.37-84.2c5.59-3.22,14-3.56,18.88-.76l80.71,46.76c4.83,2.8,4.22,7.68-1.37,10.9L168.06,765.38C162.46,768.6,154,768.93,149.18,766.13Z"/><path class="cls-17" d="M158,721.32l58.17-97.05c5.59-3.22,14-3.56,18.88-.76l80.71,46.76c4.83,2.8,4.22,7.68-1.37,10.9L168.06,765.38a21.58,21.58,0,0,1-9.73,2.63Z"/><polygon class="cls-17" points="221.73 689.2 236.59 669.1 319.07 665.76 319.04 675.19 228.85 703.78 221.73 689.2"/><path class="cls-14" d="M144.79,758.6c0,1.41-1,2-2.22,1.26a4.88,4.88,0,0,1-2.21-3.82c0-1.4,1-2,2.22-1.26A4.89,4.89,0,0,1,144.79,758.6Z"/><path class="cls-14" d="M149.19,756.9,68.48,710.14c-4.83-2.8-4.22-7.68,1.38-10.9L216.23,615c5.59-3.22,14-3.55,18.88-.75L315.81,661c4.84,2.8,4.22,7.68-1.37,10.9L168.07,756.15C162.48,759.36,154,759.7,149.19,756.9Z"/><path class="cls-18" d="M278.15,647.27l-22.28-12.91c-.92-.53-.8-1.47.26-2.08h0a4,4,0,0,1,3.6-.14L282,645.05c.92.53.8,1.47-.26,2.08h0A4,4,0,0,1,278.15,647.27Z"/><path class="cls-14" d="M116,744l-17.9-10.37A3.31,3.31,0,0,1,96.76,731h0c0-1,.62-1.48,1.38-1L116,740.31a3.33,3.33,0,0,1,1.38,2.64h0C117.42,744,116.79,744.43,116,744Z"/><path class="cls-14" d="M293.57,689.92l8.83-5.08a2.33,2.33,0,0,0,1-1.82h0c0-.7-.43-1-1-.72l-8.82,5.08a2.27,2.27,0,0,0-1,1.82h0C292.62,689.89,293.05,690.22,293.57,689.92Z"/><path class="cls-14" d="M281.05,697.76l8.83-5.08a2.31,2.31,0,0,0,.95-1.82h0c0-.7-.42-1-.95-.72l-8.83,5.08a2.29,2.29,0,0,0-.95,1.81h0C280.1,697.73,280.53,698.06,281.05,697.76Z"/><path class="cls-19" d="M220.77,619.87,97.69,690.68a4.29,4.29,0,0,0,0,7.44l74.59,43.22a4.32,4.32,0,0,0,4.3,0l123.08-70.81a4.29,4.29,0,0,0,0-7.44l-74.59-43.22A4.29,4.29,0,0,0,220.77,619.87Z"/><ellipse class="cls-2" cx="638.01" cy="656.49" rx="37.23" ry="21.06"/><path class="cls-7" d="M670.49,647.35a28.87,28.87,0,0,1-1.18,8.9c-1.39,4.85-5.77,9.44-13,12.83-15.84,7.42-39.3,6.17-52.41-2.79C597.8,662.12,595,657,595.4,652c-.07-.46.42-6.7.42-6.7a15.48,15.48,0,0,1,2.85-5.07c2.22-3.2,5.86-6.15,10.88-8.5,15.84-7.42,39.31-6.17,52.41,2.78C667.49,638.27,670.28,642.81,670.49,647.35Z"/><ellipse class="cls-20" cx="632.97" cy="646.24" rx="37.23" ry="21.06"/><ellipse class="cls-16" cx="632.97" cy="646.24" rx="27.26" ry="15.42"/><path class="cls-21" d="M617.29,650c-1.87-1.56-3.4-3.76-3.43-5.74l6.21-.37a6.53,6.53,0,0,0,2.93,4.6c2,1.35,3.85,1.51,5.66.62,4-2-5.65-8.36,1.4-11.85a15,15,0,0,1,12.79.1l4-2,3.53,2.35-4,2a5.67,5.67,0,0,1,2.21,5.2l-6-.16a3.94,3.94,0,0,0-2-3.62,4.89,4.89,0,0,0-5.2-.55c-3.72,1.84,6.2,8.09-1.29,11.8a15.5,15.5,0,0,1-13.2-.06l-4.08,2-3.53-2.36Z"/><path class="cls-7" d="M671.3,634.77a29.1,29.1,0,0,1-1.18,8.9c-1.4,4.85-5.77,9.45-13,12.83-15.84,7.42-39.31,6.18-52.41-2.78-6.12-4.18-8.89-9.29-8.52-14.31-.06-.47.42-6.7.42-6.7a15.75,15.75,0,0,1,2.85-5.07c2.23-3.21,5.87-6.15,10.89-8.5,15.84-7.42,39.3-6.18,52.41,2.78C668.29,625.69,671.08,630.23,671.3,634.77Z"/><ellipse class="cls-20" cx="633.78" cy="633.66" rx="37.23" ry="21.06"/><ellipse class="cls-16" cx="633.78" cy="633.66" rx="27.26" ry="15.42"/><path class="cls-21" d="M618.1,637.43c-1.88-1.57-3.41-3.77-3.43-5.74l6.21-.37a6.48,6.48,0,0,0,2.93,4.59c2,1.36,3.85,1.52,5.65.63,4-2-5.65-8.36,1.41-11.86a15,15,0,0,1,12.78.1l4-2,3.53,2.35-4,2a5.65,5.65,0,0,1,2.21,5.21l-6-.17a3.94,3.94,0,0,0-2-3.61,4.87,4.87,0,0,0-5.2-.55c-3.73,1.84,6.2,8.09-1.29,11.79a15.52,15.52,0,0,1-13.21-.06l-4.07,2-3.53-2.35Z"/><path class="cls-7" d="M672.29,619.3a28.77,28.77,0,0,1-1.18,8.89c-1.39,4.85-5.77,9.45-13,12.83-15.84,7.42-39.3,6.18-52.41-2.78-6.11-4.17-8.89-9.29-8.52-14.31-.06-.47.43-6.7.43-6.7a15.38,15.38,0,0,1,2.85-5.07c2.22-3.21,5.86-6.15,10.88-8.5,15.84-7.42,39.3-6.17,52.41,2.78C669.28,610.21,672.08,614.75,672.29,619.3Z"/><ellipse class="cls-22" cx="634.77" cy="618.18" rx="37.23" ry="21.06"/><path class="cls-16" d="M655.77,608.35c-9.6-6.56-26.78-7.48-38.38-2s-13.22,15.15-3.62,21.71,26.79,7.48,38.39,2S665.38,614.91,655.77,608.35Z"/><path class="cls-21" d="M619.09,622c-1.88-1.56-3.4-3.77-3.43-5.74l6.21-.37a6.49,6.49,0,0,0,2.93,4.59c2,1.36,3.85,1.52,5.66.63,4-2-5.66-8.36,1.4-11.85a15,15,0,0,1,12.79.09l4-2,3.53,2.36-4,2a5.67,5.67,0,0,1,2.21,5.2l-6-.16a3.94,3.94,0,0,0-2-3.62,4.89,4.89,0,0,0-5.2-.55c-3.73,1.84,6.2,8.09-1.29,11.79a15.46,15.46,0,0,1-13.2,0l-4.08,2-3.53-2.35Z"/><ellipse class="cls-2" cx="607.33" cy="716.71" rx="37.23" ry="21.06"/><path class="cls-7" d="M635.28,708.67a29.07,29.07,0,0,1-1.18,8.89c-1.4,4.85-5.77,9.45-13,12.84-15.84,7.41-39.31,6.17-52.42-2.79-6.11-4.17-8.88-9.29-8.51-14.31-.06-.47.42-6.7.42-6.7a15.75,15.75,0,0,1,2.85-5.07c2.23-3.21,5.87-6.15,10.89-8.5,15.83-7.42,39.3-6.17,52.41,2.78C632.27,699.59,635.06,704.12,635.28,708.67Z"/><ellipse class="cls-22" cx="597.76" cy="707.56" rx="37.23" ry="21.06"/><ellipse class="cls-16" cx="597.76" cy="707.56" rx="27.26" ry="15.42"/><path class="cls-21" d="M582.07,711.32c-1.87-1.56-3.4-3.77-3.42-5.74l6.21-.37a6.46,6.46,0,0,0,2.93,4.59c2,1.36,3.85,1.52,5.65.63,4-2-5.65-8.36,1.41-11.85a15,15,0,0,1,12.78.09l4-2L615.2,699l-4,2a5.63,5.63,0,0,1,2.21,5.2l-6-.16a3.94,3.94,0,0,0-2-3.62,4.89,4.89,0,0,0-5.2-.55c-3.73,1.84,6.2,8.09-1.29,11.8a15.52,15.52,0,0,1-13.21-.06l-4.07,2-3.53-2.35Z"/><path class="cls-23" d="M246.16,809.63,240,813.54a2.42,2.42,0,0,0-.06,4l6.2,4.22Z"/><polygon class="cls-2" points="349.45 892.3 236.51 826.69 415.44 723.38 529.53 789.25 349.45 892.3"/><polygon class="cls-24" points="338.4 856.87 225.11 791.46 392.44 694.85 505.74 760.26 338.4 856.87"/><polygon class="cls-25" points="224.13 819.54 224.13 791.57 338.21 857.44 506.72 760.15 506.72 788.13 338.21 885.41 224.13 819.54"/><polygon class="cls-17" points="224.13 819.54 224.13 791.57 338.21 857.44 338.21 885.41 224.13 819.54"/><path class="cls-26" d="M317.58,860,336.18,871a3.8,3.8,0,0,0,3.92,0l31.76-19-32.08,16.4a3.81,3.81,0,0,1-3.31.08Z"/><polygon class="cls-14" points="429.86 756.62 441.99 749.61 382.37 715.19 370.23 722.2 429.86 756.62"/><polygon class="cls-14" points="469.66 765.76 450.12 754.41 437.99 761.41 457.6 772.73 469.66 765.76"/><polygon class="cls-12" points="362.96 740.3 350.65 733.19 362.89 726.12 375.2 733.23 362.96 740.3"/><polygon class="cls-12" points="343.5 751.56 331.19 744.45 343.43 737.38 355.74 744.49 343.5 751.56"/><polygon class="cls-12" points="324.43 762.65 312.12 755.55 324.36 748.48 336.67 755.59 324.43 762.65"/><polygon class="cls-12" points="304.22 774.53 291.91 767.42 304.14 760.35 316.46 767.46 304.22 774.53"/><polygon class="cls-27" points="444.92 780.29 375.01 739.93 369.24 743.26 439.15 783.62 444.92 780.29"/><polygon class="cls-27" points="426.07 791.92 356.17 751.56 350.4 754.89 420.31 795.25 426.07 791.92"/><polygon class="cls-27" points="406.11 803.01 336.21 762.65 330.44 765.98 400.35 806.35 406.11 803.01"/><polygon class="cls-27" points="387.28 816.57 317.38 776.21 311.61 779.54 381.52 819.9 387.28 816.57"/><polygon class="cls-12" points="284.74 787.58 272.43 780.47 284.67 773.4 296.98 780.51 284.74 787.58"/><polygon class="cls-27" points="367.81 829.62 297.9 789.26 292.13 792.59 362.04 832.95 367.81 829.62"/><line class="cls-28" x1="547.91" y1="281.97" x2="801.62" y2="428.45"/><line class="cls-28" x1="548.51" y1="335.08" x2="802.23" y2="481.56"/><line class="cls-28" x1="549.12" y1="388.19" x2="802.83" y2="534.67"/><line class="cls-28" x1="549.73" y1="441.3" x2="803.44" y2="587.78"/><line class="cls-28" x1="550.33" y1="494.41" x2="804.04" y2="640.89"/><polygon class="cls-28" points="607.95 369.39 559.38 341.35 558.78 288.24 607.35 316.28 607.95 369.39"/><polygon class="cls-28" points="656.52 397.44 607.95 369.39 607.35 316.28 655.91 344.32 656.52 397.44"/><polygon class="cls-28" points="705.09 425.48 656.52 397.44 655.91 344.32 704.48 372.37 705.09 425.48"/><polygon class="cls-28" points="753.66 453.52 705.09 425.48 704.48 372.37 753.05 400.41 753.66 453.52"/><polygon class="cls-28" points="802.23 481.56 753.66 453.52 753.05 400.41 801.62 428.45 802.23 481.56"/><polygon class="cls-28" points="608.56 422.51 559.99 394.46 559.38 341.35 607.95 369.39 608.56 422.51"/><polygon class="cls-28" points="657.13 450.55 608.56 422.51 607.95 369.39 656.52 397.44 657.13 450.55"/><polygon class="cls-28" points="705.7 478.59 657.13 450.55 656.52 397.44 705.09 425.48 705.7 478.59"/><polygon class="cls-28" points="754.26 506.63 705.7 478.59 705.09 425.48 753.66 453.52 754.26 506.63"/><polygon class="cls-28" points="802.83 534.67 754.26 506.63 753.66 453.52 802.23 481.56 802.83 534.67"/><polygon class="cls-28" points="609.16 475.62 560.6 447.58 559.99 394.46 608.56 422.51 609.16 475.62"/><polygon class="cls-28" points="657.73 503.66 609.16 475.62 608.56 422.51 657.13 450.55 657.73 503.66"/><polygon class="cls-28" points="706.3 531.7 657.73 503.66 657.13 450.55 705.7 478.59 706.3 531.7"/><polygon class="cls-28" points="754.87 559.74 706.3 531.7 705.7 478.59 754.26 506.63 754.87 559.74"/><polygon class="cls-28" points="803.44 587.78 754.87 559.74 754.26 506.63 802.83 534.67 803.44 587.78"/><polygon class="cls-28" points="609.77 528.73 561.2 500.69 560.6 447.58 609.16 475.62 609.77 528.73"/><polygon class="cls-28" points="658.34 556.77 609.77 528.73 609.16 475.62 657.73 503.66 658.34 556.77"/><polygon class="cls-28" points="706.91 584.81 658.34 556.77 657.73 503.66 706.3 531.7 706.91 584.81"/><polygon class="cls-28" points="755.48 612.85 706.91 584.81 706.3 531.7 754.87 559.74 755.48 612.85"/><polygon class="cls-28" points="804.04 640.89 755.48 612.85 754.87 559.74 803.44 587.78 804.04 640.89"/><line class="cls-28" x1="410.08" y1="413.76" x2="528.27" y2="482.08"/><ellipse class="cls-14" cx="566.38" cy="497.11" rx="9.58" ry="16.59" transform="translate(-173.46 353.79) rotate(-30.31)"/><ellipse class="cls-14" cx="635.31" cy="508.13" rx="9.58" ry="16.59" transform="translate(-169.6 390.09) rotate(-30.31)"/><ellipse class="cls-14" cx="685.56" cy="472.74" rx="9.58" ry="16.59" transform="translate(-144.87 410.61) rotate(-30.31)"/><ellipse class="cls-14" cx="762.72" cy="472.99" rx="9.58" ry="16.59" transform="translate(-134.45 449.58) rotate(-30.31)"/><polyline class="cls-29" points="568.62 499.34 635.31 513.92 685.56 475.01 762.72 472.99"/><polygon class="cls-2" points="802.24 461.92 392.31 225.25 391.76 138.45 801.86 371.19 802.24 461.92"/><polygon class="cls-11" points="787.37 451.89 353.58 201.44 349.87 126.79 787.37 379.38 787.37 451.89"/><ellipse class="cls-30" cx="379.99" cy="176.15" rx="9.58" ry="16.59" transform="translate(-36.96 215.85) rotate(-30.31)"/><ellipse class="cls-20" cx="412.68" cy="196.89" rx="9.58" ry="16.59" transform="translate(-42.95 235.18) rotate(-30.31)"/><ellipse class="cls-14" cx="445.36" cy="217.4" rx="9.58" ry="16.59" transform="translate(-48.84 254.48) rotate(-30.31)"/><path class="cls-16" d="M736.73,375.26c3,11.37-3.72,18.14-15.09,15.09s-23.1-14.77-26.15-26.14,3.73-18.14,15.1-15.1S733.69,363.89,736.73,375.26Zm-5.21-1.4c-2.27-8.49-11-17.26-19.54-19.54s-13.56,2.79-11.28,11.28,11,17.27,19.54,19.55S733.8,382.36,731.52,373.86Z"/><path class="cls-16" d="M745.76,408.81h0a3.65,3.65,0,0,1-5.09-.76l-12.26-16.57a3.64,3.64,0,0,1,.76-5.08h0a3.64,3.64,0,0,1,5.08.76l12.27,16.57A3.66,3.66,0,0,1,745.76,408.81Z"/><path class="cls-31" d="M474.12,309.37l-56.89-32.85c-3.5-2-6.36-7.49-6.36-12.15h0c0-4.66,2.86-6.83,6.36-4.81l56.89,32.85c3.5,2,6.36,7.49,6.36,12.15h0C480.48,309.22,477.62,311.39,474.12,309.37Z"/><path class="cls-31" d="M515.53,333.27l-18.68-10.78c-3.5-2-6.36-7.49-6.36-12.15h0c0-4.67,2.86-6.83,6.36-4.81l18.68,10.78c3.49,2,6.35,7.49,6.35,12.15h0C521.88,333.13,519,335.29,515.53,333.27Z"/><path class="cls-31" d="M437.75,318.64l-18.68-10.78c-3.5-2-6.36-7.49-6.36-12.15h0c0-4.67,2.86-6.83,6.36-4.81l18.68,10.78c3.5,2,6.36,7.49,6.36,12.15h0C444.11,318.5,441.25,320.66,437.75,318.64Z"/><polygon class="cls-20" points="442.31 416.47 410.77 398.26 410.77 341.56 442.31 359.77 442.31 416.47"/><polygon class="cls-31" points="480.96 438.79 449.42 420.58 449.42 383.5 480.96 401.72 480.96 438.79"/><polygon class="cls-12" points="520.8 461.79 489.26 443.58 489.26 369.25 520.8 387.46 520.8 461.79"/><ellipse class="cls-2" cx="508.98" cy="686.83" rx="34.84" ry="20.11" transform="translate(-3.72 2.77) rotate(-0.31)"/><ellipse class="cls-2" cx="420.31" cy="658.4" rx="34.84" ry="20.11" transform="translate(-3.57 2.29) rotate(-0.31)"/><path class="cls-14" d="M518,671,533,674l2,5.18c.48,3.71.45,5.68-2,7.64-2.07,1.65-6.29.38-8.5-.65l-9.58-5.76c-7.1-3.92-6.57-6.82-5.8-9.21h0C510.21,668.53,513.49,669.15,518,671Z"/><path class="cls-14" d="M486.35,689.34l14.42-4.88,4.34,3.46c2.29,3,3.26,4.69,2.12,7.62-1,2.46-5.25,3.49-7.67,3.71l-11.19-.16c-8.1.2-9.1-2.58-9.64-5h0C478.36,691.17,481.51,690.05,486.35,689.34Z"/><path class="cls-14" d="M445.94,643l-13.78-6.63-7.2.25c-.43,9.51.38,8.2,3.5,10l11.7,4.32c6,1.49,7.79,1.46,10.69-.58h0C452.35,647.94,450,645.65,445.94,643Z"/><path class="cls-14" d="M406.48,668.59,401.79,654l-5.13-5c-7.2,6.24-5.69,5.93-4.83,9.41l4.92,11.47c3.05,5.37,4.31,6.66,7.79,7.35h0C407.35,676.61,407.37,673.32,406.48,668.59Z"/><path class="cls-32" d="M537.28,504.45c8.13,12.33,11.73,28.07,14.94,42.31.69,3.07,1,4.9.15,7.9-2.72,10-5.8,19.36-7,29.79-.59,5.26-8.91,5.32-8.31,0a138.66,138.66,0,0,1,6-28.5c.58-1.74,1.22-3.47,1.88-5.18-.61,1.57.21,2.73-.11,1.33-.2-.88-.38-1.76-.58-2.64-3.07-13.72-6.38-29-14.21-40.81-3-4.48,4.24-8.65,7.18-4.2Z"/><path class="cls-27" d="M539.63,507.72c5.5,9.59,9.49,25.79,13.11,38.92,1.37,3.62.5,6.9-1.79,6.75l-7.66,1.06c-1.88-.12-5.48-4.21-6.36-7.24l-9.71-33.36c-1.58-5.44-.41-10.1,2.7-10.8l.71-.11C531.17,500.94,535.48,500.92,539.63,507.72Z"/><path class="cls-33" d="M513.9,568.5l38.42,22.18a2.82,2.82,0,0,0,4.23-2.45V561.48a2.79,2.79,0,0,0-1.41-2.44l-38.42-22.19a2.83,2.83,0,0,0-4.23,2.45v26.75A2.84,2.84,0,0,0,513.9,568.5Z"/><path class="cls-16" d="M528.38,560.94a10.79,10.79,0,0,0,4.89,8.44c2.71,1.56,4.9.31,4.9-2.79a10.77,10.77,0,0,0-4.9-8.44C530.57,556.59,528.38,557.84,528.38,560.94Z"/><path class="cls-32" d="M534.69,585.74l2.79,1.26a4.31,4.31,0,0,0,5.68-2.14h0a4.3,4.3,0,0,0-2.14-5.67l-2.8-1.26a4.29,4.29,0,0,0-5.67,2.14h0A4.3,4.3,0,0,0,534.69,585.74Z"/><path class="cls-34" d="M502.3,477.53l-.06,1.57s-.2,4.74,4.46,2.29,4.52-8.36,4.52-8.36S507.67,472.61,502.3,477.53Z"/><path class="cls-35" d="M512.09,471.75s-4.31-.28-11.09,5.55l-.18,1.88,0,0s-.21,5.53,5.87,2.37S512.09,471.75,512.09,471.75Zm-5.44,8.95c-4.53,2.36-4.37-1.75-4.37-1.75l0-1.36c5.2-4.52,8.66-4.34,8.66-4.34S511.17,478.35,506.65,480.7Z"/><polygon class="cls-35" points="498.59 480.22 502.2 478.57 502.4 476.52 498.79 478.17 498.59 480.22"/><path class="cls-35" d="M511.8,473.32l.64-.29a1.43,1.43,0,0,0,.71-1.09h0c0-.44-.21-.67-.56-.51l-.64.3a1.42,1.42,0,0,0-.71,1.08h0C511.2,473.26,511.45,473.48,511.8,473.32Z"/><path class="cls-35" d="M488.42,484l.64-.29a1.44,1.44,0,0,0,.71-1.09h0c0-.44-.21-.67-.56-.51l-.64.29a1.47,1.47,0,0,0-.71,1.09h0C487.82,483.92,488.07,484.15,488.42,484Z"/><path class="cls-14" d="M492.83,487.87a11.17,11.17,0,0,0,6.87-8.18l.05,0,.18-1.88c-6.23.11-11,4.53-11,4.53S486.83,490.22,492.83,487.87Zm-3-5s3.81-3.5,8.58-3.52l-.23,1.44a8.32,8.32,0,0,1-5.12,6.08C488.62,488.64,489.85,482.89,489.85,482.89Z"/><path class="cls-14" d="M497.37,481.85h0c.15-.18.19-.41.1-.51l-1.08-1.19c-.09-.1-.29,0-.44.14h0c-.15.18-.2.41-.1.51l1.08,1.19C497,482.1,497.22,482,497.37,481.85Z"/><path class="cls-36" d="M510.29,475.7h0c.15-.18.2-.41.11-.51L509.32,474c-.1-.1-.29,0-.44.14h0c-.15.18-.2.41-.11.51l1.08,1.19C509.94,475.94,510.14,475.88,510.29,475.7Z"/><path class="cls-37" d="M511.66,598.12c-5.53,16.22-6,33.66-5.52,50.64.39,12.65,2.38,25.42,2.07,38.07-.21,8.3-13.13,8.34-12.93,0,.33-13-1.74-26.11-2.1-39.12-.48-17.7.26-36.13,6-53,2.67-7.83,15.15-4.47,12.46,3.44Z"/><path class="cls-37" d="M537.65,583.56c-2.89,10.53-4.21,21.39-5.26,32.24-.62,6.41-1.38,12.53-.71,18.92,1.36,12.87,3.76,26,3.67,38.94-.06,8.31-13,8.33-12.92,0,.09-13.16-2.37-26.45-3.73-39.51-.68-6.58.24-13,.89-19.59,1.14-11.56,2.51-23.22,5.6-34.44,2.21-8,14.68-4.61,12.46,3.44Z"/><path class="cls-37" d="M527.07,600.64h0c-1.2,1.34,3.93-5.17,2.39-4.24-3.19,1.93-21.13,14.12-24.87,14.18-4.51.08-1.88-4.28-5.23-7.3-3.19-2.85-3.94-7.5-4.25-11.77a7.33,7.33,0,0,1,.33-3.49,7.62,7.62,0,0,1,2.58-2.78c8-6,23.65-21,34.78-16.18C545.67,574.57,532.78,594.24,527.07,600.64Z"/><path class="cls-17" d="M536.42,505.16c2.36,3,2.08,4.92,2,9.07a9.29,9.29,0,0,1-6.77,8.68l-39.95,11.2s-2.3-15.37,5.58-20c4.25-2.49,10.83-6.48,16-9.62C520.84,499.86,531,498.13,536.42,505.16Z"/><path class="cls-32" d="M518.2,504.64l-3.38-15.06-9.18,6.18,2.76,13.71C508.67,511.7,518.86,509.75,518.2,504.64Z"/><path class="cls-32" d="M512.62,467.62s9.21-6.41,9.3,9.17a27.17,27.17,0,0,1-15.42,24.47c-5.53,2.64-12.31-.74-12.61-6.14-1.32-7.87-1.34-15.23,1.24-21.57-.36-6.51,4.12-4.19,11.86-4.61Z"/><path class="cls-38" d="M517.89,497.87s10.65-3.95,9.64-18.94c-1.1-16.22-16-14.82-24.3-15.61-3.67-.36-6.22-.88-10,2.47-3.42,3-.22,9.9,4.68,10.34,1.95.18,1.06,5.41,1.45,7.21.7,3.19,2.69,4.76,3.42,7.85.7,2.93,5,7.53,7.83,7.85C515.63,499.62,517.89,497.87,517.89,497.87Z"/><path class="cls-17" d="M538.52,577.37c2.55-1,1.94-44.7-.35-68.84l-45,21.4c.23,20.55,2.83,36.77.36,61.81Z"/><path class="cls-17" d="M508.57,596.21c11.11-4.05,21.69-8.49,27.91-16.11,3-1.77,2.67-4.88-.86-6.91h0c-3.53-2-8.91-2.26-12-.5l-27.92,16.12c-3.05,1.76-2.66,4.87.86,6.91h0C500.13,597.75,505.51,598,508.57,596.21Z"/><path class="cls-17" d="M493.2,529.93l7.41-3.53c.31,20,2.76,36.13.35,60.72l.12,0c-.05,1.39.94,2.87,2.92,4h0c3.52,2,8.91,2.26,12,.49a128.38,128.38,0,0,0,15.21-6.41c-6.14,4.7-14.22,8-22.6,11-3.06,1.76-8.44,1.54-12-.49h0c-2-1.15-3-2.63-2.91-4l-.13,0C496,566.7,493.43,550.48,493.2,529.93Z"/><path class="cls-14" d="M488.66,484.49l13.75,1.31a.89.89,0,0,0,1-.8h0a.88.88,0,0,0-.8-1l-13.75-1.32a.89.89,0,0,0-1,.8h0A.9.9,0,0,0,488.66,484.49Z"/><path class="cls-39" d="M502.44,511c10.32-1.55,17.29,4.93,19.75-9.93h0a3.29,3.29,0,0,0-4.45,1c-1.77,2.56-5.54,4.17-9.7,3.66a3.28,3.28,0,0,0-3.15,1.48Z"/><path class="cls-32" d="M500.74,524.45c-.7,8.6-2.06,16.47-5.66,24.35-2.59,5.67-5.24,13.78-10.83,17.35-12.63,8.07-26.09-12.59-32.06-20.45-3.23-4.27,4-8.41,7.18-4.2,3.38,4.45,15.86,24,22.29,15.55,6.87-9,9.87-21.63,10.77-32.6.43-5.29,8.75-5.34,8.31,0Z"/><path class="cls-16" d="M504.92,524.35c-2.51,21.26-9.21,34.79-18.5,41.67-4.89,2.7-9.46-5-7.59-9.66,9.25-8.23,12.5-21.05,13.38-35.69a6.71,6.71,0,0,1,8-3.72h0A6.26,6.26,0,0,1,504.92,524.35Z"/><path class="cls-32" d="M438.17,476.89c.29,12.56,2,24.65,6.6,36.43,3.48,8.83,9.56,17,14.6,24.95,2.87,4.53-4.32,8.71-7.18,4.19-5.43-8.58-11.88-17.32-15.44-26.93-4.69-12.65-6.58-25.21-6.89-38.64-.13-5.36,8.19-5.35,8.31,0Z"/><path class="cls-40" d="M436.3,467.38c3.66,5.75,4,14.63,5.11,23a3.69,3.69,0,0,1-3.12,4.78l-9,3.43c-1.88.16-3.62-3.85-3.91-5.78l-3.24-21.24A6.78,6.78,0,0,1,427,464h0C430.39,463,433.46,463.33,436.3,467.38Z"/><path class="cls-41" d="M403.64,474.73l19.87-4.93L420.63,460c-6-.11-10.2,1.8-15.24,5.22Z"/><rect class="cls-32" x="451.06" y="534.55" width="11.98" height="16.89" rx="4.94" transform="translate(-239.22 405.34) rotate(-38.73)"/><path class="cls-42" d="M404.79,544.23c5.95,18.29,5.12,38.62,3.54,57.54-.74,8.83-1.81,17.63-2.88,26.43-.69,5.63-2.52,16.56-2.46,22.24.09,8.32-11.95,8.07-12-.26a218.38,218.38,0,0,1,1.57-22c1-8.46,2.07-16.93,2.8-25.43,1.56-18.12,2.72-37.56-3-55.1-2.58-7.93,9.89-11.33,12.46-3.44Z"/><path class="cls-42" d="M433,541.32c3,10.82,4.34,22,5.47,33.2.69,6.72,1.76,13.46,1.09,20.21-1.27,12.87-3.65,25.95-3.56,38.91.06,8.32-12.86,8.33-12.92,0-.09-12.77,2.22-25.67,3.5-38.35.65-6.36-.22-12.56-.84-18.91-1-10.64-2.36-21.3-5.21-31.63-2.21-8,10.26-11.46,12.47-3.43Z"/><path class="cls-42" d="M423.59,561.84h0c-1.2,1.33,3.93-5.17,2.4-4.25-3.2,1.94-21.14,14.12-24.87,14.19-4.51.07-1.88-4.29-5.24-7.3-3.19-2.86-3.94-7.5-4.25-11.77a5.67,5.67,0,0,1,2.91-6.27c8-6,23.65-21,34.78-16.19C442.19,535.77,429.3,555.43,423.59,561.84Z"/><path class="cls-40" d="M432.94,466.35c2.36,3,2.08,4.92,2,9.08a9.29,9.29,0,0,1-6.78,8.67l-39.95,11.2s-2.29-15.36,5.59-20c4.24-2.49,10.83-6.48,16-9.63C417.37,461.06,427.49,459.32,432.94,466.35Z"/><path class="cls-40" d="M435.05,538.57c-1.19,1.53-2.7-41.57-.35-68.84l-45,21.4c.22,20.55,2.82,36.76.36,61.81Z"/><path class="cls-40" d="M405.09,557.41c11.11-4,21.69-8.49,27.91-16.12,3.06-1.76,2.67-4.87-.86-6.91h0c-3.52-2-8.91-2.25-12-.49L392.27,550c-3.06,1.77-2.67,4.88.86,6.91h0C396.65,559,402,559.17,405.09,557.41Z"/><path class="cls-16" d="M414,471.56s4.89,0,5.81-8.54l3.26-.45c.45.36,1.39.12,1.83,3a13,13,0,0,1-.27,5.09l-1.21,4.86a1.65,1.65,0,0,1-2.52.94Z"/><path class="cls-32" d="M396.35,486.71c-5,11.37-17.48,19.05-17,32.36.53,13.92,9.48,21.57,18.48,30.93,3.71,3.85-2.16,9.74-5.88,5.88-10-10.44-19.42-19.09-20.76-34.34-.63-7.17.56-13.79,4.63-19.82,4.45-6.58,10-11.8,13.32-19.2,2.17-4.89,9.34-.66,7.18,4.19Z"/><path class="cls-40" d="M402.14,484.65l-10.88,19.43c-4.38,4.8-15.48-4.71-12.25-9l12.06-17.75a6.64,6.64,0,0,1,8.77-1.61h0A6.63,6.63,0,0,1,402.14,484.65Z"/><path class="cls-38" d="M508.08,492.54c.51.37,1.65,11.22-7.47,9.46s-7.28-10.88-7.28-10.88,7.24,1.88,9.25-7.09S508.08,492.54,508.08,492.54Z"/><path class="cls-32" d="M500.31,488.05c-.22,2.57,1.09,4.78,2.93,4.93a2.32,2.32,0,0,0,.59,0c1.59-.25,2.94-2,3.13-4.34.22-2.56-1.09-4.77-2.93-4.92S500.53,485.49,500.31,488.05Z"/><path class="cls-32" d="M417.59,468.73l4.58-16.88-11.61,3.21-3.72,13.79C406,471.09,414.23,477.34,417.59,468.73Z"/><rect class="cls-32" x="409.44" y="430.21" width="21.75" height="35.21" rx="8.73" transform="translate(825.46 909.41) rotate(-178.09)"/><path class="cls-43" d="M420.47,443.49a13.82,13.82,0,0,0,9.45.2c4.14-1.6,7.07-7.42,3.82-10.45-1.76-1.63-6.26-3.11-10-4.63-10.62-4.31-22.14,1.14-22.54,13.27,0,0-1.78,15,6.6,18.39a1.87,1.87,0,0,0,2-.4l.07-.06a1.91,1.91,0,0,0,.41-2.17c-.77-1.75-1.47-5.13,2.73-7.67a3.52,3.52,0,0,0,1.49-2.66A4.63,4.63,0,0,1,420.47,443.49Z"/><path class="cls-32" d="M407.31,456.19c1.48,1.23,3.17.8,3.78-.95a5.31,5.31,0,0,0-1.58-5.4c-1.47-1.22-3.16-.8-3.77,1A5.32,5.32,0,0,0,407.31,456.19Z"/><path class="cls-44" d="M418.64,465.38s-4.75-2.44-4.77-2.48,1.62,3.46,4,4.81Z"/><path class="cls-16" d="M416.48,471.16s-5.58,1.92-11.09-5.9l-3.63,4.5c-.32.7-.36.78.2,1.39l7.32,7.94a1.91,1.91,0,0,0,3-.2Z"/><path class="cls-14" d="M253.71,647.3c-17.77-10.26-46.5-10.32-64.16-.12s-17.58,26.78.2,37.05,46.5,10.31,64.16.11S271.48,657.56,253.71,647.3Zm-53.43,30.84c-11.92-6.88-12-18-.13-24.84s31.11-6.8,43,.08,12,18,.14,24.84S212.2,685,200.28,678.14Z"/><path class="cls-12" d="M253.91,684.34c10.81-6.24,15-14.87,12.48-23L251.73,663c1.55,5.39-1.25,11.1-8.42,15.24-9.81,5.66-24.69,6.61-36.29,2.87l-7.68,7.37C216.7,694.22,239.16,692.86,253.91,684.34Z"/><path class="cls-16" d="M224.36,639.63l-1.16,8.59c7.26.23,14.41,1.95,20,5.16,5,2.91,8,6.57,8.75,10.35L266.8,663c-1.11-5.72-5.47-11.28-13.09-15.68C245.53,642.58,235,640,224.36,639.63Z"/><path class="cls-16" d="M182.86,707.1l-34.29-19.79c-2.25-1.3-2-3.59.64-5.09h0c2.6-1.51,6.57-1.67,8.82-.37l34.28,19.79c2.26,1.3,2,3.6-.63,5.1h0C189.08,708.24,185.11,708.41,182.86,707.1Z"/><path class="cls-16" d="M165.94,716.34l-34.28-19.8c-2.26-1.3-2-3.59.63-5.09h0c2.6-1.5,6.57-1.67,8.82-.37l34.29,19.8c2.25,1.3,2,3.59-.63,5.09h0C172.16,717.47,168.19,717.64,165.94,716.34Z"/><path class="cls-2" d="M790.94,604.18l-3.24-43.81L768,587.56c-6.2,66.06-51.53,118.69-51.53,118.69l-12.12,14.13L543.62,819.75l21.23,12.15,114.72-66.09c45.31-26.1,80.09-65.08,98.06-110.62C789.22,625.8,790.94,604.18,790.94,604.18Z"/><path class="cls-12" d="M555.46,834.63c194.59-76.75,230.18-271.56,230.18-271.56l-26.3-12.23c-60.55,198.77-190.33,249-232.6,267.6Z"/><polygon class="cls-12" points="736.46 562.15 785.68 523.75 792.8 595.12 736.46 562.15"/><path class="cls-45" d="M79.71,424.93s23.64-83.07,172.49-55.21"/><path class="cls-45" d="M762,273.33c3.62-.1,80.24,42.3,80.24,42.3s30.85,9.61,32.29,64.77c1.32,51.13,2.35,84.09,2.35,84.09"/></g></g></svg>