<svg id="Layer_1" data-name="Layer 1" xmlns="http://www.w3.org/2000/svg" xmlns:xlink="http://www.w3.org/1999/xlink" viewBox="0 0 1000 1000"><defs><style>.cls-1{fill:#f0f0ff;}.cls-1,.cls-10,.cls-11,.cls-12,.cls-13,.cls-14,.cls-15,.cls-16,.cls-17,.cls-18,.cls-19,.cls-2,.cls-20,.cls-21,.cls-22,.cls-23,.cls-24,.cls-25,.cls-26,.cls-27,.cls-28,.cls-29,.cls-3,.cls-30,.cls-31,.cls-32,.cls-33,.cls-4,.cls-5,.cls-6,.cls-7,.cls-8,.cls-9{fill-rule:evenodd;}.cls-2{fill:#ed428b;}.cls-3{fill:#cb2069;}.cls-4{fill:#ff65a7;}.cls-5{fill:#ffbd59;}.cls-6{fill:#fd9c3c;}.cls-7{fill:#ffdb59;}.cls-8{fill:#1fbcbf;}.cls-9{fill:#0d8e90;}.cls-10{fill:#4eeef1;}.cls-11{fill:#60a2f0;}.cls-12{fill:#367dd1;}.cls-13{fill:#8ec2ff;}.cls-14{fill:#abb1eb;}.cls-15{fill:#0d2a77;}.cls-16{fill:#061e5d;}.cls-17,.cls-34{fill:#c3caff;}.cls-18{fill:#ffaa83;}.cls-19{fill:#ed9870;}.cls-20{fill:#395fc1;}.cls-21{fill:#193c96;}.cls-22{fill:#e1825f;}.cls-23{fill:#dbdfff;}.cls-24{fill:#d4a48d;}.cls-25{fill:#d3d9e7;}.cls-26{fill:#fcd8c9;}.cls-27{fill:#6d411a;}.cls-28{fill:url(#linear-gradient);}.cls-29{fill:#1b2b38;}.cls-30{fill:#f5f4f4;}.cls-31{fill:#010f1a;}.cls-32{fill:#3c3b3b;}.cls-33{fill:#eefcff;}</style><linearGradient id="linear-gradient" x1="-2091.92" y1="-1225" x2="-1960.63" y2="-1225" gradientTransform="translate(-1464 -638) rotate(180)" gradientUnits="userSpaceOnUse"><stop offset="0" stop-color="#01253d"/><stop offset="1" stop-color="#185076"/></linearGradient></defs><title>international_trading</title><path class="cls-1" d="M913.31,163.59a59,59,0,0,0-13.56,20.3,43.07,43.07,0,0,0-2.87,14.61V736.86q-.71,55.14-36.11,86l-56.5,35.26q-9.33,7.7-17.6,5.48l-63.74-17.11a82.86,82.86,0,0,0-1.1-9.82,104.66,104.66,0,0,1,0-19.55q1.49-14.8,2.65-29.61a192.58,192.58,0,0,0,0-30.19,30.34,30.34,0,0,0-3.27-12.41,52.73,52.73,0,0,0-4.11-11.54,69.82,69.82,0,0,1-3-20.43q-.58-17.19,0-34.65.87-15.39,1.46-30.48a275.86,275.86,0,0,1,3-30.48q.62-5.62.91-11.54a54.46,54.46,0,0,0,8-13.93,17,17,0,0,0,.9-2.69q4.14-12.71-7.43-33.42a15.63,15.63,0,0,0,10.7-5.63c.31-.38.6-.77.87-1.16a35,35,0,0,0,2.07-3c.58-2.59,1.17-5.45,1.75-8.6q1.74-12.48,2.68-25L874.5,548.7V533.89L739.81,497.82c0-.57,0-1.13.05-1.69q.27-8.16,0-16.15l.11-11.23,134.5,36V490L740.23,454a242.4,242.4,0,0,0-1.91-29.62L874.5,460.87V446.06L728.41,406.92c-.73-.94-1.54-2.05-2.45-3.32a13.46,13.46,0,0,0-1.77-2q-3.27-4.46-16.26-16c-2.59-2.15-4.07-3.23-4.46-3.23h-.29a.85.85,0,0,1,.29.58q4.15,7.69-1.46,15.71l-.8,1.05a111.48,111.48,0,0,1-8.67,9.59c-.79.74-1.57,1.5-2.36,2.27q-5.05,4.94-10.11,10.49-6.51,6.5-9.77,7.37a3.69,3.69,0,0,0-.87-1.75.91.91,0,0,1-.29-.64,3,3,0,0,0,.58-1.16c0-.59-1-3.05-2.94-7.4q-2.68-6.82-3.56-8a2,2,0,0,0-.9-.9c1.77-1.23,3.58-2.57,5.43-4q4.38-3.45,9.08-7.79l3.6-3.62,10.3-10.28q2.1-2.07,2.39-6.5a46.72,46.72,0,0,0,3.26-4.75l.59-1.17c.4-.55.79-1.11,1.16-1.67L874.5,417V402.14L704.75,356.67a57.24,57.24,0,0,0,3.18-16.1v-5c-.35-2.63-.7-5.1-1.07-7.42L874.47,373v-14.8L698.41,311.05l-.57-.67q-11.54-11.58-30.48-11a64.34,64.34,0,0,0-32,9.47,18.38,18.38,0,0,0-5,4.46,19.34,19.34,0,0,0-2.1,4.14q-2.35,5.91,1.17,10.67a19.76,19.76,0,0,0-2,5.62A28.88,28.88,0,0,0,626.8,348q1.77,3.86-2.37,8.89c-1.76,2.16-2.85,3.53-3.26,4.14v.29l-2-.34V119.06q0-3.44,1.34-5a51.81,51.81,0,0,1,8.22-17.13Q638.07,83.85,651,79.29q9.45-3.36,16.85-.79l275.38,74q-6.53-1.4-14.51,1.43A42.72,42.72,0,0,0,913.31,163.59ZM678.16,834.84c-.33,2.3-.68,4.6-1,6.88a129.93,129.93,0,0,1-3.84,16.58,8.2,8.2,0,0,0,.87,1.8,22.25,22.25,0,0,0,2.68,4.1l-2.07,3.1A95.07,95.07,0,0,0,666,881.84q-2.32,4.38-5.54,11.54a14.59,14.59,0,0,0-1.63,3.71v.46a29.81,29.81,0,0,0-.67,3.67,33.67,33.67,0,0,0-.46,4.87q-.24,5.31,3.93,6.94a63,63,0,0,0,16.17-.27A41.82,41.82,0,0,0,692.54,907a29,29,0,0,0,4.63-6.5c1.54-3.22,2.68-5.6,3.44-7.14q4.39-8.76,10.17-11.3a43.17,43.17,0,0,0,4.4-11.57,22.44,22.44,0,0,0,.53-4.23l.53-.14a28.9,28.9,0,0,1,1.27,8.56q0,19.21-23.69,32.79T636.67,921q-33.45,0-57.11-13.55t-23.7-32.76q0-19.11,23.7-32.69a97.82,97.82,0,0,1,26.15-10.2,147.29,147.29,0,0,1-16.77,13.49,24.32,24.32,0,0,1-5.19,2.36Q579.82,849,578,849.5q-7,2.29-9.12,6.5a1.89,1.89,0,0,1-.26.75v.35a10.47,10.47,0,0,1-1.31,4.11,24.18,24.18,0,0,0-1.81,5.45,81.91,81.91,0,0,0,18.24,5.22,77.71,77.71,0,0,0,19,.78q4.69-2.32,13.55-9.38,8.61-6.76,14.08-9.12c1.55-1.2,3.38-.77,5.48,1.31a17.73,17.73,0,0,0,2.59,2.36,3.45,3.45,0,0,0,3.12.5q10.42-1.82,14.86-6.76a41.63,41.63,0,0,0,3.88-15.92,39.89,39.89,0,0,0,0-5.36A110,110,0,0,1,678.16,834.84Zm0-.32-17.94-4.81c0-.23,0-.46,0-.68l1.22,0q6.79-3.93,4.58-11.33a124,124,0,0,1-2.51-62.16,98.94,98.94,0,0,0,1.17-34.83v-1.48q2.39,4.74,5,17.45c.8,3.56,1.59,6.71,2.39,9.47a95.1,95.1,0,0,1,9.47,37.62v6.5a8.65,8.65,0,0,0,.29,1.78,220.87,220.87,0,0,1-2.1,30.48Q679.05,828.56,678.2,834.52ZM610.68,713.64q2.16,12.21,4.55,24.39,8,40.44-5.57,78.1L527.16,794l-.41-.11q-7.69-2.07-.2-5.89l56.5-35.26a99.55,99.55,0,0,0,27.34-38.35C610.49,714.12,610.58,713.88,610.68,713.64Zm-30-199.59c-3.36-.2-5.53-.29-6.52-.29a34,34,0,0,0,1.77,13.29.84.84,0,0,0,.3.58,18.9,18.9,0,0,1-4.14-4.14,25.4,25.4,0,0,0-1.78-2.65q.29-9.48,3.53-14.81a5,5,0,0,1,1.22-1.77,5.35,5.35,0,0,1,1.75-.29,12.09,12.09,0,0,0,2.94-.3,40.62,40.62,0,0,0,5.36-.9,1.34,1.34,0,0,0,.91-.29,4.39,4.39,0,0,1-.91,1.49A57.28,57.28,0,0,0,580.63,514.05ZM432.3,904.72a8.29,8.29,0,0,0,.73-2.27,12.57,12.57,0,0,0-1.51-6.76Q428,888.13,417.7,875q-4.49-6-7.66-10.88a12.3,12.3,0,0,0,1.84-2,11.7,11.7,0,0,0,1.45-4.42c-1-2.57-1.85-5.14-2.65-7.73-.07-.19-.14-.38-.22-.57l2,0c2.56,0,4-.46,4.43-1.37a4.82,4.82,0,0,1,0-2.48q7.11,0,26.4,10.2a55.7,55.7,0,0,0,8.28,4.14,61.13,61.13,0,0,0,11.83,2.45q8.28,1.39,11.57-.26,3-1.67,2.77-3.56a2.39,2.39,0,0,0-.27-1.11q3.82-2.76,3.82-8.56A15.85,15.85,0,0,0,478,838.34c1.6.8,3.18,1.65,4.72,2.53q24.51,14,24.51,33.83t-24.51,33.87q-24.48,14-59.1,14t-59.1-14Q340,894.55,340,874.7q0-19.14,22.91-32.91c0,.28.08.56.11.83a32.6,32.6,0,0,0,4.14,15.1c.54.8,1.09,1.59,1.66,2.36,0,.07-.11.11-.23.11v1.52l.53,1.25a7.63,7.63,0,0,0-1,4.28,52.87,52.87,0,0,0,.75,12.33q1,4.78,6.56,4.78a16,16,0,0,0,4.52-1q5.79,17.07,17.86,24.39,9.58,5.81,23.66,5.8,8.58,0,10.58-3.79a4.43,4.43,0,0,0,.5-3c-.16-1-.24-1.59-.24-1.75Zm52.11-529.53a43.55,43.55,0,0,1-10.35-6.79v-.61q-.29-14.52,4.7-23.08l.93-.91c.78.2,4.42.39,10.93.59-.2.4-.39.81-.59,1.22a39.13,39.13,0,0,0-5.33,14.19A44.47,44.47,0,0,0,484.41,375.19Zm149.9-154.33L874.5,285.2V270.4L634.31,206.05Zm0,43.91L874.5,329.12V314.31L634.31,250Zm7.58,150.66q-4.67-5.48-9.06-7l-.12-.06a1,1,0,0,0,.18-.26.18.18,0,0,0,0-.09,3.23,3.23,0,0,0,.09-.81,16.91,16.91,0,0,1-2,.87h-.58v.29a2.33,2.33,0,0,0-.93.29,30.4,30.4,0,0,1-10.29,1.61c-.52,0-1-.07-1.54-.12.5-.67,1-1.39,1.54-2.16q3-4.28,6.47-10.58c1-1.78,2.24-4.06,3.82-6.81a5.09,5.09,0,0,1,1.51.29c1,.12,2.12.29,3.35.49l2.28.41a17.84,17.84,0,0,1,5.3,2.07,16.88,16.88,0,0,0,2.94,1.78h1.81c-.38,1.28-.77,2.58-1.15,3.9q-1.82,6.23-3.6,13Zm8.28,14.22c.05.09.1.18.16.27q1.83,3,5.78,8.33a4.66,4.66,0,0,1-1.19,1.78c-.55.82-1.59,2.52-3.14,5.08q-2.73,4.54-7.53,12.7a105.93,105.93,0,0,1-5.62,10.63c-.52.68-1,1.3-1.48,1.87a23.77,23.77,0,0,1-2.84,3,8.55,8.55,0,0,1-1.13.82,12.55,12.55,0,0,1-3.65,1.45h-.08c0-.06-.05-.12-.08-.19a.06.06,0,0,0,0,0l0,0c-.46-1.25-.91-2.46-1.32-3.63q-1.2-3.7-1.92-7l-.76-5.71.58-14.51c.19-1,.39-1.87.58-2.68a12.1,12.1,0,0,1,.3-2.33l2.65-13.35v-.29a.87.87,0,0,0,.29-.59v-.29a.86.86,0,0,0,.29-.61,2.82,2.82,0,0,0,.35-1.46q.58.88-.93,3.24,2.74,2.46,4.86,4.08a26,26,0,0,0,3.73,2.45,48.79,48.79,0,0,0-1.47,8.4,24.37,24.37,0,0,0,.31,6.69A40.91,40.91,0,0,1,640,442q1.26-2,2.81-4,1.44-1.79,7.22-8.13Zm104.35,177,120,32.17V624l-120-32.17Zm4.61,56.89c.25,0,1.46-.31,3.64-.88q4.17-1.11,9-2.53,0-7.26,4.92-15.16,5.91-9.4,14.42-9.41a8.84,8.84,0,0,1,5.37,1.37,4.16,4.16,0,0,1,1.63,3.5q0,6.12-7.37,11.36-6.83,4.82-19,8.34A9,9,0,0,0,775,666q3.4,2.89,9.09,2.89,3.61,0,10.78-3.85,8.55-4.57,13-5.74a16,16,0,0,1-.7,3.32,15.33,15.33,0,0,0-.7,2.8,5.93,5.93,0,0,0,2.39,4.75,5.5,5.5,0,0,0,3.21,1.52,8.26,8.26,0,0,0,4.11-1.52,54.52,54.52,0,0,1,9.87-4.95l1.4-.32-1.4.32a54.52,54.52,0,0,0-9.87,4.95,8.26,8.26,0,0,1-4.11,1.52,5.5,5.5,0,0,1-3.21-1.52,5.93,5.93,0,0,1-2.39-4.75,15.33,15.33,0,0,1,.7-2.8,16,16,0,0,0,.7-3.32q-4.46,1.17-13,5.74-7.17,3.86-10.78,3.85-5.69,0-9.09-2.89a9,9,0,0,1-3.26-5.91q12.15-3.52,19-8.34,7.37-5.24,7.37-11.36a4.16,4.16,0,0,0-1.63-3.5,8.84,8.84,0,0,0-5.37-1.37q-8.51,0-14.42,9.41-4.95,7.91-4.92,15.16-4.82,1.42-9,2.53C760.59,663.18,759.38,663.47,759.13,663.49Zm-1.4,30.57q.43-3.88,3.17-5.16a10.68,10.68,0,0,1,4.43-.7,63.61,63.61,0,0,1,6.88.55l8.31,1.08q2.47.31,17.13,2.33l18.65,2.65c9.76,1.36,14.87,2,15.36,2a27.54,27.54,0,0,0,17.25-6.09q7.94-6.12,9.18-12.82t-4.22-9.59q-5.46-2.88-9.07-1.16a61.74,61.74,0,0,0-8.8,5.3q-5.22,3.59-7.81,3.59-3.53,0-3.52-5.08a12.61,12.61,0,0,1,.7-2.79,16.49,16.49,0,0,0,.69-3,16.49,16.49,0,0,1-.69,3,12.61,12.61,0,0,0-.7,2.79q0,5.09,3.52,5.08,2.59,0,7.81-3.59a61.74,61.74,0,0,1,8.8-5.3q3.62-1.73,9.07,1.16t4.22,9.59q-1.25,6.7-9.18,12.82a27.54,27.54,0,0,1-17.25,6.09c-.49,0-5.6-.68-15.36-2l-18.65-2.65q-14.65-2-17.13-2.33l-8.31-1.08a63.61,63.61,0,0,0-6.88-.55,10.68,10.68,0,0,0-4.43.7Q758.17,690.18,757.73,694.06ZM640.11,544.24a.83.83,0,0,0-.29-.61,21,21,0,0,1-2.94-11.25,27.06,27.06,0,0,1,3.23-10.67q1.49-2,3-4.14h5.33a8.9,8.9,0,0,0-1,1.93q-5.72,16.75,6.87,31.24-4.74-.59-10.08-1.46A34.84,34.84,0,0,1,640.11,544.24ZM636.3,588c-.45-.18-.89-.37-1.32-.58a38.2,38.2,0,0,1-15.82-12.2c-.43-.56-.85-1.14-1.25-1.73l-.59-15.68,8.08-.32a41.41,41.41,0,0,0,4.25,4q3.65,3.18,7.81,10.26ZM573.84,864.59a39.44,39.44,0,0,0,5,1.31,1,1,0,0,1,.76.27A27.32,27.32,0,0,1,573.84,864.59ZM437,427.29a25.49,25.49,0,0,0-6.5-5,49.67,49.67,0,0,0-1.17-13.35,17.31,17.31,0,0,0-6.56,3.27,14.3,14.3,0,0,0-4.11,6.21,7.69,7.69,0,0,0-.29,6.23l.59,1.17a14.72,14.72,0,0,0-1.2,6.53v.29c-.6-1.38-1.19-2.76-1.78-4.14q-7.67-15.39-26.92-31.68-2.1-2.1-12.15-9.76-4.76-4.17-4.75-5,0-8.89,8.59-8-1.17,2.68-2.65,5.34a80.92,80.92,0,0,1,8.28,4.16q8.59,4.44,17.77,10.35,12.7,8,18,13.05a17,17,0,0,0,2.39-8.3c.19-3.75.39-6.42.58-8a10.09,10.09,0,0,1,.29-2.36,10.69,10.69,0,0,1,.91-3,5,5,0,0,0,.29-1.16l.29-.29q7.69,2.38,8.6,14.8v.58a5.57,5.57,0,0,0,.29,1.78c0,2.56-.1,5.82-.29,9.76a60,60,0,0,0,0,8.89C436,422.17,436.44,424.73,437,427.29ZM118.42,706.21v59.53l0,0V706.24l-2.78-1.61,0,0ZM95.63,778.9l-.09.05.09,0v1L40,748l15.71-9v8.87l46.81,27-6.87,4h0Zm62.68,61.74L221,804.42v-6.14l12.73,7.36v-.06l62.74-36.22v-9.3l15.62,9-76.61,44-4.28-2.46-70.88,40.64L78.09,804,95.63,794v10.46Zm281.4-226c-.59-.33-1.2-.65-1.84-1a53,53,0,0,0-7.34-3.2l1.16-1.46a64.13,64.13,0,0,0,3-5.92,6.15,6.15,0,0,0,1.2-1.77,16.8,16.8,0,0,0,1.46-3.27l1.22-3.55a6.71,6.71,0,0,0,.29-2.07,5.35,5.35,0,0,0,.29-1.75,13.88,13.88,0,0,0,.29-2.68,17.22,17.22,0,0,0,2.95.87,47,47,0,0,0,5-1.45,1.1,1.1,0,0,1,.87-.32v1.77q.62,9.18-5.62,20.72a.87.87,0,0,1-.29.59l-1.14,1.86C440.68,613,440.17,613.86,439.71,614.67ZM232.23,726.91h0l1.51.87v0Z"/><path class="cls-2" d="M181.09,670l-49.91-28.83V596.65l62.69,36.18v45.62l-12.74,7.36V670l0,0h0v0Zm-49.91-73.34v-.07l.06,0Zm62.69,108.13v0l-12.74-7.36v0Z"/><path class="cls-3" d="M631.89,414.15l0,.12c-.39,2.56-.88,5.43-1.46,8.59a2.82,2.82,0,0,1-.35,1.46.86.86,0,0,1-.29.61v.29a.87.87,0,0,1-.29.59v.29l-2.65,13.35a12.1,12.1,0,0,0-.3,2.33c-.19.81-.39,1.71-.58,2.68L625.34,459l.76,5.71a55.59,55.59,0,0,0,1.6,6.41c.31.84.83,2.19,1.57,4.05a.46.46,0,0,1,.07.14l0,0a.06.06,0,0,1,0,0,.36.36,0,0,1,0,.1l.06.09h.08l-3,33.75a16,16,0,0,0-3-2.39l-5.33-3.24c.21-2,.42-3.86.61-5.65v-.29c.11-2,.23-4.11.35-6.19q.48-8.06,1.11-16.57v-.61a5.11,5.11,0,0,1,.32-1.78q2.35-35.82,6.21-53.85.9-4.47,1.77-8a6.5,6.5,0,0,0,.88-2.07,2.33,2.33,0,0,1,.93-.29h.29a15.44,15.44,0,0,1,2-.87v.87l.12.06c0,.21,0,.41-.06.58a22.65,22.65,0,0,1-.64,2.92v1A3.65,3.65,0,0,1,631.89,414.15Zm-7.78,129.48a36.36,36.36,0,0,0,1.29,13.9l-8.08.32Q617,547.18,617,546v-1.49h.59l1.54-.23C621.07,544,622.73,543.78,624.11,543.63ZM430.53,422.28c0,2-.1,3.94-.29,5.92a29.11,29.11,0,0,1-5.92.87v.58a12.17,12.17,0,0,1-5.33-3.84l-.59-1.17a7.69,7.69,0,0,1,.29-6.23,14.3,14.3,0,0,1,4.11-6.21,17.31,17.31,0,0,1,6.56-3.27A49.67,49.67,0,0,1,430.53,422.28ZM256.61,596.61v71.87l-22.76-13.12L193.9,678.44V632.83l.54-.32ZM199,707.71h0l-5.1-2.94h0Z"/><path class="cls-4" d="M645.77,498.66q-.94,6.79-2.68,18.91-1.5,2.1-3,4.14a11.83,11.83,0,0,1-5-3.55c-1-1-1.85-1.86-2.65-2.65a21,21,0,0,0-3.56-3.85l-1.77-1.78-.29-.29a.26.26,0,0,0-.3-.29l3-33.75a12.55,12.55,0,0,0,3.65-1.45,8.55,8.55,0,0,0,1.13-.82,23.77,23.77,0,0,0,2.84-3c.47-.57,1-1.19,1.48-1.87a105.93,105.93,0,0,0,5.62-10.63q4.8-8.16,7.53-12.7c1.55-2.56,2.59-4.26,3.14-5.08a4.66,4.66,0,0,0,1.19-1.78q2.14-3,4-5.71l1.34-2a74.29,74.29,0,0,1,5.63-7.11c.39.79,1,1.87,1.78,3.23l.29.29a.91.91,0,0,0,.29.64,55.16,55.16,0,0,0-4.42,6.24A81.67,81.67,0,0,0,658.69,447c-1,2.66-2,5.48-2.87,8.46q-3,9.1-5.25,18.49c-.67,2.89-1.3,5.8-1.86,8.72q-.59,2.64-1.11,5.28t-1,5.42v.58a5.83,5.83,0,0,0-.58,2.65A6.58,6.58,0,0,0,645.77,498.66ZM625.4,557.53a36.36,36.36,0,0,1-1.29-13.9,3.47,3.47,0,0,1,1.52-.29,31.68,31.68,0,0,1,3.82-.3h3a23.34,23.34,0,0,0,3.88.3,21.07,21.07,0,0,1,3.52.29.83.83,0,0,1,.29.61q-1.49,13.29-2.65,27.51-4.17-7.08-7.81-10.26A41.41,41.41,0,0,1,625.4,557.53Zm-175.61-72.8q2.94,21.3,2.94,57.41a29.08,29.08,0,0,1-1.48,15.71,71.31,71.31,0,0,1-3.85,8.27,1,1,0,0,1-.29.62,18.51,18.51,0,0,1-1.49,2.33v0c0,.17-.2.38-.58.61a7.66,7.66,0,0,1-1.17,2q-3.87-1.95-5-7.23a17.16,17.16,0,0,1-.35-2.53q.29-8.9.29-12.42a26.72,26.72,0,0,1,.29-4.17q.58-24.85.29-37.59-.29-24-5-41.44-.87-5.91-5.3-18.36-3.87-11.53-4.75-18.36v-.58a29.11,29.11,0,0,0,5.92-.87,120.46,120.46,0,0,1,10.34,20.13,168.68,168.68,0,0,1,8.89,34.3A6.44,6.44,0,0,1,449.79,484.73ZM131.18,596.62l.06,0,62.66-36.17,62.71,36.2-62.17,35.9-.57.32-62.69-36.18h0Z"/><polygon class="cls-5" points="55.71 739.01 55.71 670.04 115.61 704.63 118.39 706.24 118.39 765.76 102.52 774.92 55.71 747.88 55.71 739.01"/><path class="cls-6" d="M181.13,685.81l-10,5.8,10,5.78v0l-10-5.8v58.5l-12.79-7.39-39.87,23V706.21L181.13,670Zm0-15.85,0,0v0Z"/><polygon class="cls-7" points="131.18 641.13 181.09 669.96 181.13 669.97 181.16 669.99 181.13 670 118.42 706.21 115.65 704.61 55.71 670.01 118.45 633.79 131.18 641.13"/><polygon class="cls-8" points="233.76 727.8 233.76 805.58 233.76 805.64 221.03 798.28 221.03 778.83 220.94 778.89 171.08 750.11 171.08 691.61 181.13 697.41 193.87 704.76 193.9 704.78 199 707.72 232.23 726.91 233.76 727.8"/><polygon class="cls-9" points="233.76 805.58 233.76 727.8 233.76 727.77 233.82 727.8 296.5 691.58 296.5 760.06 296.5 769.36 233.76 805.58"/><polygon class="cls-10" points="193.87 678.45 193.9 678.44 233.85 655.36 256.61 668.48 296.56 691.55 296.5 691.58 233.82 727.8 233.76 727.77 232.25 726.9 199.01 707.71 193.9 704.76 193.87 704.75 181.13 697.39 171.11 691.61 181.13 685.81 193.87 678.45"/><path class="cls-11" d="M95.65,778.9h0Zm62.66,36.21v25.53l-62.68-36.2V779l62.63,36.15Zm1.49-304.73-36.46-21.07V444l36.46,21.07Z"/><path class="cls-12" d="M196.27,444l0,0v0Zm0,.07v45.2l-36.46,21.07V465.08h0Zm-38,396.59V815.11L221,778.92l-.06,0,.09-.06v25.59Z"/><path class="cls-13" d="M196.29,444.05l-36.43,21h0L123.4,444,159.89,423l36.38,21h0l.05,0Zm-38,371.06-.05,0L95.63,779l-.09,0,.09-.05h0l6.87-4,15.87-9.16,0,0,39.87-23,12.79,7.39,49.86,28.78.06,0Z"/><path class="cls-14" d="M913.31,163.59a42.72,42.72,0,0,1,15.39-9.67q8-2.83,14.51-1.43a21.59,21.59,0,0,1,2.16.58.26.26,0,0,1,.18.09,19.72,19.72,0,0,1,5.27,2.68q9.18,6.53,9.18,20.28Zm-13.56,20.3.6.16q6.78,1.86,6.79,9.65V736.86q-.74,55.14-36.11,86l-56.51,35.26a29.16,29.16,0,0,1-7.46,4.64l-4.63,2.91q-9.36,7.69-17.6,5.48L723,854.58v-.42c.08-2.56.06-5.11-.09-7.64l63.74,17.11q8.26,2.22,17.6-5.48l56.5-35.26q35.41-30.89,36.11-86V198.5A43.07,43.07,0,0,1,899.75,183.89ZM527.16,794l82.5,22.15q-1,2.68-2,5.36a12.55,12.55,0,0,0,.44,1.4,9.2,9.2,0,0,0,.39.93l-83.56-22.41q-7.67-2.07-.21-5.88Zm151,40.54c0,.11,0,.21,0,.32a110,110,0,0,0-17.85-4.55c0-.19,0-.38,0-.58Z"/><path class="cls-15" d="M698.41,311.05a29.57,29.57,0,0,1,3,4.37.26.26,0,0,1,.29.29,18.53,18.53,0,0,1,1.16,2,34.86,34.86,0,0,1-7.14,6.47l-1,.66q-20.5,13.49-46.06,11.84a13.88,13.88,0,0,0-3.88-2.68q-2-.59-8.24-2.94a34.37,34.37,0,0,1-7.14-3q-3.53-4.75-1.17-10.67a19.34,19.34,0,0,1,2.1-4.14,18.38,18.38,0,0,1,5-4.46,64.34,64.34,0,0,1,32-9.47q18.95-.58,30.48,11ZM687.79,519.67q-1.5-11.29-2.06-21.55-.33-6.15-.33-11.93v-3.56q.29-14.19,3-22.78c.27-1.19.71-2.71,1.33-4.57q1.06-3.24,2.84-7.85l2-5.67q2.51-7.29,4.23-12.69a137.19,137.19,0,0,1,9.64-12.7q7.23-8.31,13.29-11.25a21.09,21.09,0,0,1,2.21-.91,5,5,0,0,1,1.49-.29.84.84,0,0,1,.58-.32c.91,1.27,1.72,2.38,2.45,3.32.4.53.76,1,1.11,1.43a21.83,21.83,0,0,1,3.26,5A12.54,12.54,0,0,0,722,410.51a16.57,16.57,0,0,0-10.75,6.61c-.15.2-.3.41-.44.62a79.62,79.62,0,0,0-11.39,25.32,86.32,86.32,0,0,0-2,11.28c-.11,1-.22,1.94-.31,2.91a135.84,135.84,0,0,0,.42,29.22q.39,3.19.94,6.39.76,4.53,1.48,9.05,1.49,9.49,2.71,18.93Zm31.68,86.15-30.22,23.66a222.18,222.18,0,0,0,5.62-46.77v-1.49c0-2.56-.1-5.13-.29-7.69q0-2.92-.58-17.55a94.56,94.56,0,0,0,26.92-.2q11.58,20.72,7.43,33.42a17,17,0,0,1-.9,2.69A54.46,54.46,0,0,1,719.47,605.82ZM579.56,866.17a1,1,0,0,0-.76-.27,39.44,39.44,0,0,1-5-1.31l-3.93-1.31c-.35-.15-.69-.32-1-.49V861l-.26-2.62v-1.58a1.89,1.89,0,0,0,.26-.75q2.1-4.2,9.12-6.5,1.82-.56,5.74-1.84a24.32,24.32,0,0,0,5.19-2.36,147.29,147.29,0,0,0,16.77-13.49q2.7-2.5,5.41-5.2c.86.6,1.74,1.19,2.62,1.76,1.09.72,2.19,1.43,3.29,2.13L659.55,829v.9c0,.08,0,.15,0,.22q.18,6.06-3.68,8.61a23.82,23.82,0,0,1-5.22,3.41c-1,.35-2.15.79-3.38,1.31l-3.61,1.32a16.41,16.41,0,0,1-2.62.75q-12.24,3.65-15.62,5.22a26.43,26.43,0,0,0-8.34,5q-2.6,2.1-7.55,6.5a27.57,27.57,0,0,1-7.81,5.22,15.75,15.75,0,0,1-9.41.79l-7-1a1.07,1.07,0,0,1-.79-.27,5,5,0,0,1-1.57-.26h-.53c-.68-.17-1.37-.34-2.07-.49ZM478,838.34a15.85,15.85,0,0,1,3.29,10.55q0,5.79-3.82,8.56a4.05,4.05,0,0,1-2.21,1.11h-2.48a42.7,42.7,0,0,1-14-2.48,87.62,87.62,0,0,1-13.79-6.35,3.5,3.5,0,0,0-1.4-.84q-13.17-7.41-14.86-8.22a60,60,0,0,0-15.41-5.8q-4.37-.95-7.65-1.87c-.19-.83-.37-1.66-.54-2.5q-1.17-5.62-2-11.57a37.81,37.81,0,0,0,6.79,5,41.39,41.39,0,0,0,19.55,2.68,48.36,48.36,0,0,0,5.3-.87,57.53,57.53,0,0,0,12.16-3.27,6.27,6.27,0,0,1,2.07-.87l-.06-.32q14.64,11.09,28.32,16.06C477.44,837.67,477.71,838,478,838.34ZM347,589.61c.79.27,1.61.55,2.45.82h.29q25.2,7.7,50.62,14c-.39,2-.93,4.57-1.61,7.64s-1.2,5.84-1.63,8.07q-3.59.18-7.28.18a148.09,148.09,0,0,1-23.38-2.1q-4.86-.79-17-3.15c-2.48-.5-5.2-1.05-8.16-1.63l-.11-.41a.75.75,0,0,0-.73-.44q-.15-4.51,2.74-12.76t3.38-7.78l.12-.7c0-.25.08-.51.14-.79l.06-.46A4.89,4.89,0,0,0,347,589.61Zm57.2-16.08a407.92,407.92,0,0,1-41.47-20.72A359.25,359.25,0,0,1,369,505.16q7.11-37-9.76-69.59-6.49-12.12-20.43-14.51l.29-.59,2.07-2.06c.58-.78,1.18-1.57,1.78-2.36l3.55-3.56a10.08,10.08,0,0,0,1.49-1.19q14.78,7.11,21.3,20.13a53.88,53.88,0,0,1,4.46,16,140.14,140.14,0,0,1,.58,14.48q.59,34.08,10.38,56.54,3.84,9.18,8.89,19,4.71,10.05,5.91,12.44Q403.89,559.93,404.18,573.53ZM424,332.26a40.23,40.23,0,0,0-4.75-.29c-2.37-.19-4.84-.39-7.4-.58q-10.67,4.14-19.85,3.53a22.41,22.41,0,0,1-5.33-.59,33.28,33.28,0,0,1-9.76-3.52,86.17,86.17,0,0,1-8.28-5.63,15,15,0,0,0-2.68-2.1q.9-2.94,1.8-5.33a26.61,26.61,0,0,1,3-5.92v-.29H371v-.29a27.81,27.81,0,0,1,1.81-2.68,13.82,13.82,0,0,0,2-2.65q11.53-11.51,30.51-10.93,17.78,1.17,30.77,9.15l-.26-.12q6.47,3.68,8.57,9a10.89,10.89,0,0,1-.3,8.89,6.34,6.34,0,0,1-.93,1.75,23.63,23.63,0,0,1-7.08,3q-6.21,2.36-8,3.29A13.71,13.71,0,0,0,424,332.26ZM658.82,897.55v-.46a14.59,14.59,0,0,1,1.63-3.71q3.21-7.15,5.54-11.54a95.07,95.07,0,0,1,8.77-14.54l2.07-3.1a25,25,0,0,0,5.33,4.76q12.51,2.32,29.6-1.69a54,54,0,0,1-4,6.73,106.16,106.16,0,0,0-6.94,11.55q-2.07,4.13-6,12.23a.84.84,0,0,0-.23.67q-3,6.24-10.41,8.57c-.62.14-1.23.28-1.83.44-.94.16-2.09.31-3.47.47l-2.1.46h-.44a12.29,12.29,0,0,0-2.53.24h-3.27c-1.69.15-3.38.23-5.07.23-2.77.15-4.7-1.24-5.77-4.17a15.49,15.49,0,0,1-.93-5.77ZM410,864.14Q413.22,869,417.7,875q10.29,13.13,13.82,20.67a12.57,12.57,0,0,1,1.51,6.76,8.29,8.29,0,0,1-.73,2.27,4,4,0,0,1-3.29,2.77,32.36,32.36,0,0,1-5.54,1.51,31.33,31.33,0,0,1-5.53.5h-2.51l-2.77-.5a5.27,5.27,0,0,0-1.51-.23h-.5a2.21,2.21,0,0,0-1-.26A31.76,31.76,0,0,1,393,899c-.33-.5-.83-1.26-1.51-2.27q-2.77-4-8.31-12.33-6-9.55-11-14.1a34,34,0,0,1-2.28-3.53l-.75-3.76-.53-1.25v-1.52c.12,0,.2,0,.23-.11.7.92,1.43,1.81,2.19,2.68q6.8,8,16,8a17.65,17.65,0,0,1,3.26-.29l5.63-1.19h.9a32.26,32.26,0,0,0,6.82-1.49,2.15,2.15,0,0,1,.87-.29A19.68,19.68,0,0,0,410,864.14Z"/><path class="cls-16" d="M704.75,356.67a57.76,57.76,0,0,1-6.62,13c-.37.56-.76,1.12-1.16,1.67l-.59,1.17a46.72,46.72,0,0,1-3.26,4.75,11.11,11.11,0,0,1-2.07,2c-2.37,2-4.54,2.38-6.53,1.19a15.09,15.09,0,0,1-1.77-1.48q-2.68-2.37-.88-5.92a4.72,4.72,0,0,1,.88-1.17l2.36-3.55a5.09,5.09,0,0,0,.43-2.07,4.29,4.29,0,0,0-.43-1.81,6.16,6.16,0,0,0-6.5-3.23,23.24,23.24,0,0,0-4.85,1.88c-1,.47-2,1-3.17,1.64-3.12,1.6-5.29,2.3-6.49,2.1-1.58-.19-2.07-2.37-1.49-6.53-.43-.17-.85-.35-1.25-.53A20.21,20.21,0,0,1,655.5,356a4.22,4.22,0,0,1-.58-.91,10.72,10.72,0,0,1-2.36-5.62,7.33,7.33,0,0,1,0-2.95v-.58l-3-8.6a3.52,3.52,0,0,0-.87-.58q25.56,1.65,46.06-11.84l1-.66a34.86,34.86,0,0,0,7.14-6.47,50.64,50.64,0,0,1,3.85,9.5c0,.29.09.57.13.86.37,2.32.72,4.79,1.07,7.42v5A57.24,57.24,0,0,1,704.75,356.67Zm-44.49,473c0,.2,0,.39,0,.58a39.89,39.89,0,0,1,0,5.36,41.63,41.63,0,0,1-3.88,15.92q-4.42,4.95-14.86,6.76a3.45,3.45,0,0,1-3.12-.5,17.73,17.73,0,0,1-2.59-2.36c-2.1-2.08-3.93-2.51-5.48-1.31q-5.48,2.36-14.08,9.12-8.85,7.05-13.55,9.38a77.71,77.71,0,0,1-19-.78,81.91,81.91,0,0,1-18.24-5.22,24.18,24.18,0,0,1,1.81-5.45,10.47,10.47,0,0,0,1.31-4.11v1.23l.26,2.62v1.84c.33.17.67.34,1,.49l3.93,1.31a27.32,27.32,0,0,0,5.72,1.58h.78c.7.15,1.39.32,2.07.49h.53a5,5,0,0,0,1.57.26,1.07,1.07,0,0,0,.79.27l7,1a15.75,15.75,0,0,0,9.41-.79,27.57,27.57,0,0,0,7.81-5.22q5-4.4,7.55-6.5a26.43,26.43,0,0,1,8.34-5q3.38-1.57,15.62-5.22a16.41,16.41,0,0,0,2.62-.75l3.61-1.32c1.23-.52,2.35-1,3.38-1.31a23.82,23.82,0,0,0,5.22-3.41q3.86-2.55,3.68-8.61c0-.07,0-.14,0-.22V829L617,830.5c-1.1-.7-2.2-1.41-3.29-2.13-.88-.57-1.76-1.16-2.62-1.76l-1.11-.8a5.33,5.33,0,0,1-1.4-1.64,3.73,3.73,0,0,1-.16-.35,9.2,9.2,0,0,1-.39-.93,12.55,12.55,0,0,1-.44-1.4q1.08-2.67,2-5.36,13.53-37.65,5.57-78.1-2.38-12.18-4.55-24.39Q600.47,656,595.15,597.8a61.61,61.61,0,0,0,21.62,26.84,7.11,7.11,0,0,0,1.14.67l.29-42,17.48,14.22L633.32,631l6.5,1.49a430,430,0,0,0,20.08,74.43q2.51,6.84,4.78,13.78a98.94,98.94,0,0,1-1.17,34.83A124,124,0,0,0,666,817.65q2.22,7.4-4.58,11.33l-1.22,0C660.23,829.25,660.25,829.48,660.26,829.71Zm-211.43-8.42.06.32a6.27,6.27,0,0,0-2.07.87,57.53,57.53,0,0,1-12.16,3.27,48.36,48.36,0,0,1-5.3.87,41.39,41.39,0,0,1-19.55-2.68,37.81,37.81,0,0,1-6.79-5c-.21-1.88-.38-3.75-.53-5.63a178.52,178.52,0,0,1,8.25-69.5q12.88-39.66,23-80a330,330,0,0,0,8.37-48.17,5,5,0,0,1,1.8,1.16l.29.32a79,79,0,0,1,8.25,5,42.26,42.26,0,0,0,3.59,2.65l-6.53,17.77,21.62.88a142.36,142.36,0,0,1-8.6,32.87,425.12,425.12,0,0,0-9.76,43.8,305.59,305.59,0,0,0-4.17,44.7q0,9.79-1.45,28.71a179.63,179.63,0,0,0,.29,18.07C447.77,815,448.25,818.22,448.83,821.29ZM380.78,374a34.81,34.81,0,0,1-2.36-2.62q-1.2-1.8-2.65-4.46a54.65,54.65,0,0,1-10.67-30.77V329a.84.84,0,0,0,.3-.58V327c.19-1.19.38-2.38.58-3.58v-.3a15,15,0,0,1,2.68,2.1,86.17,86.17,0,0,0,8.28,5.63,33.28,33.28,0,0,0,9.76,3.52,22.41,22.41,0,0,0,5.33.59q9.18.6,19.85-3.53c2.56.19,5,.39,7.4.58a40.23,40.23,0,0,1,4.75.29,8.94,8.94,0,0,0-3.27,4.46.87.87,0,0,0-.29.58v.59h-.29v4.46a8.92,8.92,0,0,1,0,3.26,10.85,10.85,0,0,1-2.39,5.33,22.42,22.42,0,0,1-6.82,5,2.15,2.15,0,0,0-.87.29c.58,3.94.1,6.12-1.46,6.52-1,.2-3.19-.6-6.56-2.39a33.69,33.69,0,0,0-7.95-3.52,5.58,5.58,0,0,0-6.21,3.23,3.35,3.35,0,0,0,0,3.85,22.42,22.42,0,0,0,2,3.56.79.79,0,0,1,.29.58l.61.61a5,5,0,0,1,0,4.72,4.58,4.58,0,0,1-.9,1.2q-3.84,4.13-8.27.29A1.91,1.91,0,0,1,380.78,374ZM715.71,866.28a22.44,22.44,0,0,1-.53,4.23,43.17,43.17,0,0,1-4.4,11.57q-5.78,2.53-10.17,11.3c-.76,1.54-1.9,3.92-3.44,7.14a29,29,0,0,1-4.63,6.5,41.82,41.82,0,0,1-14.75,5.74,63,63,0,0,1-16.17.27q-4.17-1.63-3.93-6.94a33.67,33.67,0,0,1,.46-4.87,29.81,29.81,0,0,1,.67-3.67v1.37a15.49,15.49,0,0,0,.93,5.77c1.07,2.93,3,4.32,5.77,4.17,1.69,0,3.38-.08,5.07-.23h3.27a12.29,12.29,0,0,1,2.53-.24h.44l2.1-.46c1.38-.16,2.53-.31,3.47-.47.6-.16,1.21-.3,1.83-.44q7.41-2.32,10.41-8.57a.84.84,0,0,1,.23-.67q3.93-8.1,6-12.23A106.16,106.16,0,0,1,707.81,874a54,54,0,0,0,4-6.73C713.05,867,714.37,866.64,715.71,866.28ZM446.5,583h-.59c-1.16,0-2.35-1.88-3.55-5.63a27.42,27.42,0,0,1-1.78-5.91q-1-2.93-1.92-6.94h.23q1.11,5.28,5,7.23a7.66,7.66,0,0,0,1.17-2,.76.76,0,0,0,.49-.12.19.19,0,0,1,.09.12v10a.89.89,0,0,0,.29.62,9.59,9.59,0,0,1,.29,2.36C446.4,582.71,446.5,582.8,446.5,583ZM405.6,833q3.28.93,7.65,1.87a60,60,0,0,1,15.41,5.8q1.69.81,14.86,8.22a3.5,3.5,0,0,1,1.4.84,87.62,87.62,0,0,0,13.79,6.35,42.7,42.7,0,0,0,14,2.48h2.48a4.05,4.05,0,0,0,2.21-1.11,2.39,2.39,0,0,1,.27,1.11q.23,1.89-2.77,3.56-3.3,1.65-11.57.26a61.13,61.13,0,0,1-11.83-2.45,55.7,55.7,0,0,1-8.28-4.14q-19.29-10.2-26.4-10.2a4.82,4.82,0,0,0,0,2.48c-.39.91-1.87,1.37-4.43,1.37l-2,0A129.37,129.37,0,0,1,405.6,833Zm26.7,71.72V905c0,.16.08.74.24,1.75a4.43,4.43,0,0,1-.5,3q-2,3.79-10.58,3.79-14.07,0-23.66-5.8-12.06-7.32-17.86-24.39a16,16,0,0,1-4.52,1q-5.54,0-6.56-4.78a52.87,52.87,0,0,1-.75-12.33,7.63,7.63,0,0,1,1-4.28l.75,3.76a34,34,0,0,0,2.28,3.53q5,4.54,11,14.1,5.54,8.28,8.31,12.33c.68,1,1.18,1.77,1.51,2.27a31.76,31.76,0,0,0,16.61,9.56,2.21,2.21,0,0,1,1,.26h.5a5.27,5.27,0,0,1,1.51.23l2.77.5h2.51a31.33,31.33,0,0,0,5.53-.5,32.36,32.36,0,0,0,5.54-1.51A4,4,0,0,0,432.3,904.72Z"/><path class="cls-17" d="M702.88,317.75a18.53,18.53,0,0,0-1.16-2,.26.26,0,0,0-.29-.29,29.57,29.57,0,0,0-3-4.37l176.06,47.18V373L706.86,328.11c0-.29-.08-.57-.13-.86A50.64,50.64,0,0,0,702.88,317.75Zm-4.75,51.95a57.76,57.76,0,0,0,6.62-13L874.5,402.14V417Zm34.65,43.69a21.83,21.83,0,0,0-3.26-5c-.35-.43-.71-.9-1.11-1.43L874.5,446.06v14.81L738.32,424.38l-.12-.9A15.66,15.66,0,0,0,732.78,413.39ZM740,468.75l0-4.18q.21-5.29.19-10.57L874.5,490v14.8Zm-1,43.64q.54-7.27.82-14.57L874.5,533.89V548.7ZM634.31,264.77V250L874.5,314.31v14.81Zm0-43.91V206.05L874.5,270.4v14.8ZM754.52,606.6V591.8l120,32.17v14.8ZM440.58,448.33a120.46,120.46,0,0,0-10.34-20.13c.19-2,.29-4,.29-5.92a25.49,25.49,0,0,1,6.5,5q.9,5,1.8,10.38Q440,443.88,440.58,448.33Zm-22.79-15.7v-.29a14.72,14.72,0,0,1,1.2-6.53,12.17,12.17,0,0,0,5.33,3.84q.87,6.83,4.75,18.36,4.43,12.45,5.3,18.36,4.75,17.49,5,41.44.3,12.73-.29,37.59-1.51-8.26-2.68-17.77h-.29c-.19-2.16-.39-4.32-.58-6.5q-4.45-34-6.5-46.16-2.38-14.22-4.75-23.11A115.69,115.69,0,0,0,417.79,432.63Z"/><path class="cls-18" d="M681.87,373.12q-6.24,6.5-10,6.79h-.32a8.44,8.44,0,0,1-2.07,3.93l-.44.44-1.34,1-4.43,1.52h-.29a5.86,5.86,0,0,1-1.78.29,31.5,31.5,0,0,1-4.75.29c-.59-.06-1.15-.12-1.69-.16-1.11-.09-2.12-.13-3-.13h-2.39c-1.38,0-4.23-.19-8.57-.58a24,24,0,0,1-6.41-1.14,13,13,0,0,1-1.6-.67,10.2,10.2,0,0,1-1.17-.87,3.42,3.42,0,0,1-1.16-1.2,15.42,15.42,0,0,1-2.1-3.26c-.19-.39-.79-2.17-1.78-5.34q-2.07-6.19-5.91-8.24a.89.89,0,0,0-.61-.32,5.61,5.61,0,0,1,1.19-4.14V361c.41-.61,1.5-2,3.26-4.14q4.14-5,2.37-8.89a28.88,28.88,0,0,1,.61-14.22q2.69,1.8,6.9,4.49,2.73,1.72,6.09,3.81,7.41,4.72,12.16,7.38a10.72,10.72,0,0,0,2.36,5.62,4.22,4.22,0,0,0,.58.91,20.21,20.21,0,0,0,5.86,3.89c.4.18.82.36,1.25.53-.58,4.16-.09,6.34,1.49,6.53,1.2.2,3.37-.5,6.49-2.1,1.15-.63,2.2-1.17,3.17-1.64a23.24,23.24,0,0,1,4.85-1.88,6.16,6.16,0,0,1,6.5,3.23,4.29,4.29,0,0,1,.43,1.81,5.09,5.09,0,0,1-.43,2.07L682.75,372A4.72,4.72,0,0,0,681.87,373.12ZM617,544.53A67.56,67.56,0,0,1,605.49,546a22.37,22.37,0,0,1-3.55.29A31.31,31.31,0,0,1,588.3,543l-.29-.32a7.71,7.71,0,0,0-1.75-.87,30.18,30.18,0,0,1-2.39-2.65c.58-1.38,1-2.37,1.19-3-4.15-.78-7.12-3.65-8.88-8.6a.84.84,0,0,1-.3-.58,34,34,0,0,1-1.77-13.29c1,0,3.16.09,6.52.29s8,.48,13.88.87h4.75Q604,517,609,519.38c3.75,1.75,6.22,2.62,7.43,2.62a2.29,2.29,0,0,0,1.46-.29v-2.33a6.86,6.86,0,0,0-.88-3.58c0-.2-.19-.49-.58-.88a21.41,21.41,0,0,0-5.33-5.62q-1.2-.58-5.92-2.39a12.94,12.94,0,0,1-4.75-2.65l-.32-.29a5,5,0,0,1-.29-4.43,23.46,23.46,0,0,1,7.43.58,32.62,32.62,0,0,1,8.6,2.36,6.38,6.38,0,0,1,2.33,1.19l5.33,3.24a16,16,0,0,1,3,2.39.26.26,0,0,1,.3.29l.29.29,1.77,1.78a21,21,0,0,1,3.56,3.85c.8.79,1.68,1.68,2.65,2.65a11.83,11.83,0,0,0,5,3.55,27.06,27.06,0,0,0-3.23,10.67,21,21,0,0,0,2.94,11.25,21.07,21.07,0,0,0-3.52-.29,23.34,23.34,0,0,1-3.88-.3h-3a31.68,31.68,0,0,0-3.82.3,3.47,3.47,0,0,0-1.52.29c-1.38.15-3,.37-5,.67l-1.54.23ZM453.64,358a13.48,13.48,0,0,1-2.39,1.78,1.72,1.72,0,0,0-.3,1.2,27.54,27.54,0,0,0-1.16,7.4,26.25,26.25,0,0,1-1.23,6.21c-.19.77-.38,1.46-.58,2.06a3.41,3.41,0,0,0-.58.91q-2.65,3.56-8.57,4.43h-2.39l-9.18.87a17,17,0,0,1-2.07.61h-4.13l-5.34-1.19a20.94,20.94,0,0,1-5-1.78q-7.08-3.56-8-9.5v-1.16h-.3a1.82,1.82,0,0,1-1.19.29,8.23,8.23,0,0,1-6.21,0l-4.14-1.75a.82.82,0,0,0-.61-.32.79.79,0,0,0-.29-.58,22.42,22.42,0,0,1-2-3.56,3.35,3.35,0,0,1,0-3.85,5.58,5.58,0,0,1,6.21-3.23,33.69,33.69,0,0,1,7.95,3.52c3.37,1.79,5.55,2.59,6.56,2.39,1.56-.4,2-2.58,1.46-6.52A2.15,2.15,0,0,1,411,356a22.42,22.42,0,0,0,6.82-5,10.85,10.85,0,0,0,2.39-5.33q3.85-2.39,9.18-5.94a32.1,32.1,0,0,1,4.14-2.95q8-5.33,12.7-8.59a34.22,34.22,0,0,1,.3,8,5.6,5.6,0,0,0-.88,2.94,5.89,5.89,0,0,0,.88,3.85,39.62,39.62,0,0,0,4.75,6.21c2.17,2.37,3.36,4.24,3.55,5.62A3.6,3.6,0,0,1,453.64,358ZM676,370.73a16.86,16.86,0,0,1-3,3.88,28.72,28.72,0,0,0,4.75-2.36,19.11,19.11,0,0,0,4.43-3.56c0-.19-.29-.5-.87-.9-.39-.39-.58-.68-.58-.88A10.43,10.43,0,0,0,676,370.73ZM589.49,522a68.47,68.47,0,0,0-9.15-1.16,61.11,61.11,0,0,0,8.86,2.07,95.2,95.2,0,0,0,9.47,1.48V523.2A46.31,46.31,0,0,1,589.49,522Zm0,16.29a30.7,30.7,0,0,0,11.86,1.49q-2.39-.59-5.91-1.19Q591.27,538.29,589.49,538.29Zm-8-9.76a19.39,19.39,0,0,0,4.14,1.49,33.54,33.54,0,0,0,3.84.58A47.47,47.47,0,0,0,581.51,528.53ZM391.74,360.09l6.21,6.24,1.8-.9a12.57,12.57,0,0,0-2.39-3.27,9.68,9.68,0,0,0-4.75-2.65ZM456,624.73a42.26,42.26,0,0,1-3.59-2.65,79,79,0,0,0-8.25-5l-.29-.32a5,5,0,0,0-1.8-1.16c-.59-.22-1.08-.42-1.49-.61a1.16,1.16,0,0,0-.87-.3c.46-.81,1-1.68,1.51-2.59l1.14-1.86a.87.87,0,0,0,.29-.59q6.24-11.53,5.62-20.72v-1.77c1.21-.59,2.49-1.17,3.85-1.75a2.34,2.34,0,0,1,.9-.29q6.83-3.27,11.25-3a26.47,26.47,0,0,1,6.53,1.46l-3.58,9.18h.53a.91.91,0,0,0-.53.29q3.87,2.69,11.83,8.31a6.64,6.64,0,0,1,2.39,1.48c2,.59,3.76,1.07,5.33,1.46a11.2,11.2,0,0,0,4.46.29,8.24,8.24,0,0,0,1.75-.29q3.84-.87,3.84,3.26a6,6,0,0,1-3,5.63q-3.24,2.68-5.91,4.75a81.31,81.31,0,0,1-10.64,6.79,2.3,2.3,0,0,0-.88.29,21.86,21.86,0,0,1-7.11,2.1,23.25,23.25,0,0,1-12.15-1.52L456,624.44Z"/><path class="cls-19" d="M648.71,336.72a3.52,3.52,0,0,1,.87.58l3,8.6v.58a7.33,7.33,0,0,0,0,2.95q-4.75-2.65-12.16-7.38-3.36-2.08-6.09-3.81-4.21-2.69-6.9-4.49a19.76,19.76,0,0,1,2-5.62,34.37,34.37,0,0,0,7.14,3q6.2,2.36,8.24,2.94A13.88,13.88,0,0,1,648.71,336.72Zm13.61,72.8a.84.84,0,0,1-.58.32q-1.5,8.57-11.28,19.52a.25.25,0,0,0-.29.29l-.16.18q-5.78,6.35-7.22,8.13-1.54,2-2.81,4a40.91,40.91,0,0,0-3.1,5.77,24.37,24.37,0,0,1-.31-6.69,48.79,48.79,0,0,1,1.47-8.4v-.29c.2-.61.39-1.31.59-2.1V430c.35-1.05.67-2,.94-2.9a37.11,37.11,0,0,0,1.45-5.7,20.75,20.75,0,0,0,.87-5.92v-2.94q1.79-6.75,3.6-13c.38-1.32.77-2.62,1.15-3.9,1-3,1.88-5.83,2.65-8.57h1.46c0,3.55.12,6.51.35,8.86A47.43,47.43,0,0,0,662,397.1a22.43,22.43,0,0,0,13.84-4.25,25.68,25.68,0,0,0,7.78-10.26,6.27,6.27,0,0,0,.87-2.07c2,1.19,4.16.79,6.53-1.19a11.11,11.11,0,0,0,2.07-2q-.29,4.43-2.39,6.5l-10.3,10.28-3.6,3.62q-4.7,4.33-9.08,7.79C665.9,407,664.09,408.29,662.32,409.52ZM446.2,328.13q-4.71,3.25-12.7,8.59a32.1,32.1,0,0,0-4.14,2.95q-5.33,3.56-9.18,5.94a8.92,8.92,0,0,0,0-3.26v-4.46h.29v-.59a.87.87,0,0,1,.29-.58,8.94,8.94,0,0,1,3.27-4.46,13.71,13.71,0,0,1,4.11-2.33q1.8-.93,8-3.29a23.63,23.63,0,0,0,7.08-3,6.34,6.34,0,0,0,.93-1.75A22.86,22.86,0,0,1,446.2,328.13ZM600.13,504l.32.29a12.94,12.94,0,0,0,4.75,2.65q4.72,1.8,5.92,2.39a21.41,21.41,0,0,1,5.33,5.62c.39.39.58.68.58.88a6.86,6.86,0,0,1,.88,3.58v2.33a2.29,2.29,0,0,1-1.46.29c-1.21,0-3.68-.87-7.43-2.62q-5-2.39-9.76-4.46h-4.75q-8.87-.58-13.88-.87A57.28,57.28,0,0,1,585.06,504a4.39,4.39,0,0,0,.91-1.49,32.18,32.18,0,0,0,5.3-1.2A90.34,90.34,0,0,1,600.13,504Zm-18.62,24.56a47.47,47.47,0,0,1,8,2.07,33.54,33.54,0,0,1-3.84-.58A19.39,19.39,0,0,1,581.51,528.53Zm8,9.76q1.78,0,6,.3,3.52.6,5.91,1.19A30.7,30.7,0,0,1,589.49,538.29Zm0-16.29a46.31,46.31,0,0,0,9.18,1.2v1.19a95.2,95.2,0,0,1-9.47-1.48,61.11,61.11,0,0,1-8.86-2.07A68.47,68.47,0,0,1,589.49,522ZM391.74,360.09l.87-.58a9.68,9.68,0,0,1,4.75,2.65,12.57,12.57,0,0,1,2.39,3.27l-1.8.9Zm34.65,25.15a10.69,10.69,0,0,0-.91,3,10.09,10.09,0,0,0-.29,2.36c-.19,1.59-.39,4.26-.58,8a17,17,0,0,1-2.39,8.3q-5.33-5-18-13.05-9.18-5.91-17.77-10.35a80.92,80.92,0,0,0-8.28-4.16q1.49-2.65,2.65-5.34a1.91,1.91,0,0,0,.91.91q4.43,3.84,8.27-.29a4.58,4.58,0,0,0,.9-1.2q1.47,3.55,7.09,7.11,8,4.73,19.84,5h5.65A14.82,14.82,0,0,0,426.39,385.24Z"/><path class="cls-20" d="M484.41,375.19a44.47,44.47,0,0,1,.29-15.39A39.13,39.13,0,0,1,490,345.61c.2-.41.39-.82.59-1.22.19-.2.39-.39.61-.59q15.09,2.68,30.19,5.92a14.13,14.13,0,0,1,3.26.93q7.38,1.46,14.81,3.53a182.12,182.12,0,0,0,51.78,5,143.72,143.72,0,0,1,20.43.9q3.36.24,7.46.86l2,.34a5.61,5.61,0,0,0-1.19,4.14.89.89,0,0,1,.61.32,5.43,5.43,0,0,1-.91,1.16l-5.91,10.67a.26.26,0,0,1-.29.29,11.46,11.46,0,0,0-.88,2.36,20.29,20.29,0,0,0-.9,2.65,1.27,1.27,0,0,1-.29.91,160.46,160.46,0,0,0-5.33,20.13q-1.2,6.21-2.37,13.9c-.21,1.58-.41,3.16-.61,4.75a8.53,8.53,0,0,1-.29,2.07q-4.14-19.84-23.69-26.95a119.78,119.78,0,0,0-37.56-7.11,112.63,112.63,0,0,1-37.92-8.28,123.42,123.42,0,0,0-18.94-6.21A2.32,2.32,0,0,0,484.41,375.19Zm223.52,10.34q-.72,3-4.29,14.76-1,3.25-2.21,7.19c-.77,2.37-1.46,4.53-2.09,6.47l-.59,1.8q-3.59,12.17-4.46,12.16-1.17,0-5.92-.62a6.08,6.08,0,0,0-2.07-.32q-6.52-.87-6.82-.87l.59.58c1.2,2.18,2.4,4.46,3.58,6.85a3.26,3.26,0,0,0,.58.87c1,2.19,1.75,3.92,2.25,5.21a9.43,9.43,0,0,1,.73,2.46q0,.81-6.42,10.82c-.67,1.06-1.4,2.19-2.18,3.4a53.06,53.06,0,0,1-4.17,6.21q-5.6,8.6-8.25,11-1,1-3.22,3.75-3.35,4.13-9.47,12.25l-1.53,2q-3.56,4.17-6.2,7.14a6.58,6.58,0,0,1,.29-2.1,5.83,5.83,0,0,1,.58-2.65v-.58q.45-2.71,1-5.42t1.11-5.28c.56-2.92,1.19-5.83,1.86-8.72q2.22-9.39,5.25-18.49c.9-3,1.85-5.8,2.87-8.46A81.67,81.67,0,0,1,665,433.85a55.16,55.16,0,0,1,4.42-6.24,3.69,3.69,0,0,1,.87,1.75q3.27-.87,9.77-7.37,5.05-5.55,10.11-10.49c.79-.77,1.57-1.53,2.36-2.27a111.48,111.48,0,0,0,8.67-9.59l.8-1.05q5.63-8,1.46-15.71a.85.85,0,0,0-.29-.58h.29C703.86,382.3,705.34,383.38,707.93,385.53ZM740,468.75,739.89,480q.24,8,0,16.15c0,.56,0,1.12-.05,1.69q-.28,7.29-.82,14.57-.94,12.55-2.68,25L732.49,549c-.27.39-.56.78-.87,1.16a15.63,15.63,0,0,1-10.7,5.63A94.56,94.56,0,0,1,694,556v-.2a30.56,30.56,0,0,0-3.44-.26l-1,0-34.65-3.88-.59-.87q-12.58-14.49-6.87-31.24a8.9,8.9,0,0,1,1-1.93l.58-.87,5.6-.06a167.2,167.2,0,0,1,33.19,3l14.8,1.17q-1.22-9.44-2.71-18.93-.72-4.52-1.48-9.05-.55-3.19-.94-6.39a135.84,135.84,0,0,1-.42-29.22c.09-1,.2-1.94.31-2.91a86.32,86.32,0,0,1,2-11.28,79.62,79.62,0,0,1,11.39-25.32c.14-.21.29-.42.44-.62A16.57,16.57,0,0,1,722,410.51a12.54,12.54,0,0,1,10.81,2.88,15.66,15.66,0,0,1,5.42,10.09l.12.9A242.4,242.4,0,0,1,740.23,454q0,5.28-.19,10.57ZM689.25,629.48l30.22-23.66q-.3,5.91-.91,11.54a275.86,275.86,0,0,0-3,30.48q-.58,15.09-1.46,30.48-.58,17.46,0,34.65a69.82,69.82,0,0,0,3,20.43,52.73,52.73,0,0,1,4.11,11.54,30.34,30.34,0,0,1,3.27,12.41,192.58,192.58,0,0,1,0,30.19q-1.17,14.81-2.65,29.61a104.66,104.66,0,0,0,0,19.55,82.86,82.86,0,0,1,1.1,9.82c.15,2.53.17,5.08.09,7.64v3.56c-.19,1-.39,2-.58,3-.2,1.38-.4,2.65-.61,3.81q-2.85.9-5.59,1.64l-.53.14c-1.34.36-2.66.69-4,1q-17.09,4-29.6,1.69a25,25,0,0,1-5.33-4.76,22.25,22.25,0,0,1-2.68-4.1,8.2,8.2,0,0,1-.87-1.8,129.93,129.93,0,0,0,3.84-16.58c.36-2.28.71-4.58,1-6.88,0-.11,0-.21,0-.32q.85-6,1.57-12a220.87,220.87,0,0,0,2.1-30.48,40.47,40.47,0,0,0-.29-5v-3.24a95.1,95.1,0,0,0-9.47-37.62c-.8-2.76-1.59-5.91-2.39-9.47q-2.65-12.71-5-17.45v1.48q-2.28-6.93-4.78-13.78a430,430,0,0,1-20.08-74.43c1.19.19,2.47.39,3.85.58a91.22,91.22,0,0,0,24,1.46A60.86,60.86,0,0,0,689.25,629.48ZM469,463.43q2.94-36.14-7.11-59.51a144.89,144.89,0,0,0-14.51-26.34,3.41,3.41,0,0,1,.58-.91c.2-.6.39-1.29.58-2.06a26.25,26.25,0,0,0,1.23-6.21A27.54,27.54,0,0,1,451,361a21.22,21.22,0,0,1,5.63,7.69,236.73,236.73,0,0,0,14.8,26.93q8,12.44,16.88,24a227.83,227.83,0,0,0,20.1,23.11,156.88,156.88,0,0,0,13.35,11.83q11.84,9.48,23.11,19.82,9.73,8.88,20.08,16.87a144.37,144.37,0,0,0,16,10.67,4.67,4.67,0,0,1-1.23,1.77,12.09,12.09,0,0,1-2.94.3,5.35,5.35,0,0,0-1.75.29,5,5,0,0,0-1.22,1.77q-3.24,5.34-3.53,14.81a25.4,25.4,0,0,1,1.78,2.65,2.72,2.72,0,0,1-.29,1.2q-11.25-5.62-22.53-11.57Q525.85,501,502.74,488.29a175.32,175.32,0,0,1-33.13-24.57A.87.87,0,0,0,469,463.43ZM410,864.14a19.68,19.68,0,0,1-5.57,3.34,2.15,2.15,0,0,0-.87.29,32.26,32.26,0,0,1-6.82,1.49h-.9l-5.63,1.19a17.65,17.65,0,0,0-3.26.29q-9.18,0-16-8c-.76-.87-1.49-1.76-2.19-2.68s-1.12-1.56-1.66-2.36a32.6,32.6,0,0,1-4.14-15.1c0-.27-.07-.55-.11-.83q-1.25-8.89-4.61-26.39-3.58-18.39-5-27.57-4.74-32.25,1.78-55.31,5.31-26.65,1.75-61.31-1.17-13-4.11-30.45a248.84,248.84,0,0,1-3.24-25.65q12.14,2.35,17,3.15a148.09,148.09,0,0,0,23.38,2.1q3.69,0,7.28-.18a150,150,0,0,0,18.56-1.95q13.56-2.75,20.93-3.91l1.28-.61c.64.31,1.25.63,1.84,1a1.16,1.16,0,0,1,.87.3c.41.19.9.39,1.49.61a330,330,0,0,1-8.37,48.17q-10.08,40.39-23,80a178.52,178.52,0,0,0-8.25,69.5c.15,1.88.32,3.75.53,5.63q.87,5.94,2,11.57c.17.84.35,1.67.54,2.5a129.37,129.37,0,0,0,4.86,16.42c.08.19.15.38.22.57.8,2.59,1.68,5.16,2.65,7.73a11.7,11.7,0,0,1-1.45,4.42A12.3,12.3,0,0,1,410,864.14Zm-5.86-290.61a362.27,362.27,0,0,0,35.23,13.61v.9a13.88,13.88,0,0,1-.29,2.68,5.35,5.35,0,0,1-.29,1.75,6.71,6.71,0,0,1-.29,2.07l-1.22,3.55a16.8,16.8,0,0,1-1.46,3.27,6.15,6.15,0,0,1-1.2,1.77,64.13,64.13,0,0,1-3,5.92l-1.16,1.46-30.19-6q-25.43-6.35-50.62-14h-.29c-.84-.27-1.66-.55-2.45-.82q-30.9-11.19-27.77-46,4.16-41.44,6.23-82.59c.2-2.56.39-5.82.58-9.76a49.22,49.22,0,0,1,2.39-12.45q1.75-11.85,9.77-18.06a.81.81,0,0,1,.58.29q13.94,2.38,20.43,14.51,16.88,32.58,9.76,69.59a359.25,359.25,0,0,0-6.24,47.65A407.92,407.92,0,0,0,404.18,573.53Zm-37-188.87a33.88,33.88,0,0,1,4.14-7.08l4.46-4.17a13.06,13.06,0,0,1,2.65-2,34.81,34.81,0,0,0,2.36,2.62q-8.59-.87-8.59,8,0,.87,4.75,5,10.05,7.67,12.15,9.76Q408.35,413.1,416,428.49c.59,1.38,1.18,2.76,1.78,4.14a115.69,115.69,0,0,1,6.53,19.23q2.35,8.89,4.75,23.11,2,12.12,6.5,46.16c.19,2.18.39,4.34.58,6.5h.29q1.17,9.5,2.68,17.77a26.72,26.72,0,0,0-.29,4.17q0,3.52-.29,12.42a17.16,17.16,0,0,0,.35,2.53h-.23c-.14-.62-.28-1.27-.44-1.95q-7.39-29-14.78-47.36-6.56-15.38-13.92-30.19l-.59-1.16a19.81,19.81,0,0,1-1.51-3l-1.17-2.07a.87.87,0,0,0-.29-.59c-1.19-2.39-2.37-4.67-3.56-6.85-.21-.38-.41-.77-.61-1.16l-3.23-5.33a.25.25,0,0,0-.29-.29,4.11,4.11,0,0,0-.62-.88,188.46,188.46,0,0,0-10.95-17.48q0-1.78,3.26-8l3.88-7.4q0-.62-1.23-1.2a3.52,3.52,0,0,0-.87-.58q-20.43.87-22.21-4.43-.58-1.18,0-5.33.92-3.56,0-5.63a61.52,61.52,0,0,0-7.4-13.34,5.62,5.62,0,0,0-1.49-2l-.29-.29,5.34-5.92.29-.32v-.29a10.16,10.16,0,0,0,.29-2.36,2.85,2.85,0,0,0,.29-1.2C366.77,387,367,385.86,367.17,384.66Zm263.21-2.07a3.42,3.42,0,0,0,1.16,1.2,10.2,10.2,0,0,0,1.17.87c-1.17,2-2.25,3.95-3.26,5.92-1.58,2.75-2.85,5-3.82,6.81q-3.51,6.3-6.47,10.58c-.53.77-1,1.49-1.54,2.16.5.05,1,.09,1.54.12a30.4,30.4,0,0,0,10.29-1.61,6.5,6.5,0,0,1-.88,2.07q-.87,3.56-1.77,8-3.85,18-6.21,53.85a5.11,5.11,0,0,0-.32,1.78V475q-.63,8.52-1.11,16.57c-.12,2.08-.24,4.15-.35,6.19V498q-2.65-5-4.75-14.77-1.45-7.69-2.65-18.07-2.1-19.81-2.68-40,0-2.64,7.14-7.4c1.13-.73,2.22-1.4,3.29-2a40.77,40.77,0,0,1,4.37-2.15c-.8-.54-2.26-1.37-4.37-2.47-1-.51-2.06-1.07-3.29-1.69a18.08,18.08,0,0,0-2.39-1.46c-1.77-1.79-2.65-3.56-2.65-5.33s2.66-5.14,8-10.06l.35-.35c1.1-1.1,2.37-2.28,3.79-3.52Q627.41,384.95,630.38,382.59ZM436.44,382a68.7,68.7,0,0,1,17.49,30.8,10.23,10.23,0,0,1-4.14,4.43,13,13,0,0,1-5,2.36l9.18,12.74a463.09,463.09,0,0,0-4.14,52.39,6.44,6.44,0,0,0-.32-2.1,168.68,168.68,0,0,0-8.89-34.3q-.58-4.45-1.75-10.66-.9-5.34-1.8-10.38c-.59-2.56-1.07-5.12-1.46-7.69a60,60,0,0,1,0-8.89c.19-3.94.29-7.2.29-9.76a5.57,5.57,0,0,1-.29-1.78v-.58q-.9-12.42-8.6-14.8a.26.26,0,0,1,.29-.3v-.61Zm9.18,187.7a.19.19,0,0,0-.09-.12.22.22,0,0,0,.09-.17Z"/><path class="cls-21" d="M648.42,517.57h-5.33q1.74-12.12,2.68-18.91,2.64-3,6.2-7.14l1.53-2q6.12-8.12,9.47-12.25,2.24-2.76,3.22-3.75,2.65-2.39,8.25-11a53.06,53.06,0,0,0,4.17-6.21c.78-1.21,1.51-2.34,2.18-3.4q6.42-10,6.42-10.82a9.43,9.43,0,0,0-.73-2.46c-.5-1.29-1.25-3-2.25-5.21a3.26,3.26,0,0,1-.58-.87c-1.18-2.39-2.38-4.67-3.58-6.85l-.59-.58q.3,0,6.82.87a6.08,6.08,0,0,1,2.07.32q4.75.61,5.92.62.87,0,4.46-12.16l.59-1.8c.63-1.94,1.32-4.1,2.09-6.47q1.22-3.93,2.21-7.19,3.58-11.71,4.29-14.76,13,11.58,16.26,16a13.46,13.46,0,0,1,1.77,2,.84.84,0,0,0-.58.32,5,5,0,0,0-1.49.29,21.09,21.09,0,0,0-2.21.91q-6.06,3-13.29,11.25a137.19,137.19,0,0,0-9.64,12.7q-1.72,5.4-4.23,12.69l-2,5.67q-1.77,4.6-2.84,7.85c-.62,1.86-1.06,3.38-1.33,4.57q-2.68,8.59-3,22.78v3.56q0,5.78.33,11.93.57,10.26,2.06,21.55a167.2,167.2,0,0,0-33.19-3l-5.6.06ZM618.2,583.29l-.29,42a7.11,7.11,0,0,1-1.14-.67,61.61,61.61,0,0,1-21.62-26.84l-3.27-10.34a.93.93,0,0,0,.29-.62.92.92,0,0,1-.61-.29L591,585.1a242.15,242.15,0,0,0,11-38.79,22.37,22.37,0,0,0,3.55-.29A67.56,67.56,0,0,0,617,544.53V546q0,1.15.29,11.83l.59,15.68C617.91,576.89,618,580.14,618.2,583.29Zm-169.58-8.45-1.22-8.72a71.31,71.31,0,0,0,3.85-8.27,29.08,29.08,0,0,0,1.48-15.71q0-36.1-2.94-57.41a463.09,463.09,0,0,1,4.14-52.39l-9.18-12.74a13,13,0,0,0,5-2.36,10.23,10.23,0,0,0,4.14-4.43A68.7,68.7,0,0,0,436.44,382h2.39q5.93-.87,8.57-4.43a144.89,144.89,0,0,1,14.51,26.34Q472,427.29,469,463.43a64.58,64.58,0,0,1-.32,6.5q-4.11,40.86,4.43,62.45a70,70,0,0,1,5.92,27.54v.29l-8.25,23.37a26.47,26.47,0,0,0-6.53-1.46q-4.42-.29-11.25,3a2.34,2.34,0,0,0-.9.29,12.73,12.73,0,0,1-2.94-8v-.29a.85.85,0,0,0-.29-.58q-.09-.53-.18-1.14ZM439.41,588v-.9a362.27,362.27,0,0,1-35.23-13.61q-.29-13.62-4.72-23.67-1.2-2.39-5.91-12.44-5.06-9.79-8.89-19-9.8-22.47-10.38-56.54a140.14,140.14,0,0,0-.58-14.48,53.88,53.88,0,0,0-4.46-16q-6.53-13-21.3-20.13a9.11,9.11,0,0,1,.79-.73l.32-.27c.5-.46,1-.92,1.54-1.37l1.17-1.16a24.15,24.15,0,0,1,2.09-2.39q3.24-3.83,6.5-7.37l.29.29a5.62,5.62,0,0,1,1.49,2,61.52,61.52,0,0,1,7.4,13.34q.92,2.07,0,5.63-.58,4.14,0,5.33,1.79,5.31,22.21,4.43a3.52,3.52,0,0,1,.87.58q1.23.59,1.23,1.2l-3.88,7.4q-3.25,6.21-3.26,8a188.46,188.46,0,0,1,10.95,17.48,4.11,4.11,0,0,1,.62.88.25.25,0,0,1,.29.29l3.23,5.33c.2.39.4.78.61,1.16,1.19,2.18,2.37,4.46,3.56,6.85a.87.87,0,0,1,.29.59l1.17,2.07a19.81,19.81,0,0,0,1.51,3l.59,1.16q7.37,14.81,13.92,30.19,7.38,18.33,14.78,47.36c.16.68.3,1.33.44,1.95q1,4,1.92,6.94a27.42,27.42,0,0,0,1.78,5.91c1.2,3.75,2.39,5.63,3.55,5.63h.59c.21,1,.41,2.08.61,3.26a2.72,2.72,0,0,1,.29,1.2,47,47,0,0,1-5,1.45A17.22,17.22,0,0,1,439.41,588ZM620.59,365.75q3.84,2,5.91,8.24c1,3.17,1.59,4.95,1.78,5.34a15.42,15.42,0,0,0,2.1,3.26q-3,2.36-7.43,6.21c-1.42,1.24-2.69,2.42-3.79,3.52l-.35.35q-8,7.38-8,10.06c0,1.77.88,3.54,2.65,5.33a18.08,18.08,0,0,1,2.39,1.46c1.23.62,2.33,1.18,3.29,1.69,2.11,1.1,3.57,1.93,4.37,2.47a40.77,40.77,0,0,0-4.37,2.15c-1.07.59-2.16,1.26-3.29,2q-7.14,4.76-7.14,7.4.59,20.14,2.68,40,1.19,10.36,2.65,18.07,2.1,9.78,4.75,14.77c-.19,1.79-.4,3.67-.61,5.65a6.38,6.38,0,0,0-2.33-1.19,32.62,32.62,0,0,0-8.6-2.36c0-1.59-.1-3.86-.29-6.79q-.9-8-.9-8.6-.89-27.86-2.07-39.37-1.2-11.25-.91-13.64v-3.23a12.29,12.29,0,0,0,0-3.85h-.29a8.53,8.53,0,0,0,.29-2.07c.2-1.59.4-3.17.61-4.75q1.17-7.69,2.37-13.9a160.46,160.46,0,0,1,5.33-20.13,1.27,1.27,0,0,0,.29-.91,20.29,20.29,0,0,1,.9-2.65,11.46,11.46,0,0,1,.88-2.36.26.26,0,0,0,.29-.29l5.91-10.67A5.43,5.43,0,0,0,620.59,365.75Zm19.52,178.49a34.84,34.84,0,0,0,4.14,5q5.34.87,10.08,1.46l.59.87,34.65,3.88,1,0a30.56,30.56,0,0,1,3.44.26v.2q.57,14.64.58,17.55c.19,2.56.29,5.13.29,7.69v1.49a222.18,222.18,0,0,1-5.62,46.77,60.86,60.86,0,0,1-21.6,5,91.22,91.22,0,0,1-24-1.46c-1.38-.19-2.66-.39-3.85-.58l-6.5-1.49,2.36-33.45c.2-3.75.4-6.91.62-9.47l1.16-16.29Q638.63,557.53,640.11,544.24ZM400.34,604.47l30.19,6a53,53,0,0,1,7.34,3.2l-1.28.61q-7.38,1.17-20.93,3.91a150,150,0,0,1-18.56,1.95q.64-3.34,1.63-8.07C399.41,609,400,606.5,400.34,604.47Z"/><path class="cls-22" d="M453.64,358a3.6,3.6,0,0,0,1.16-3.26c-.19-1.38-1.38-3.25-3.55-5.62a39.62,39.62,0,0,1-4.75-6.21,5.89,5.89,0,0,1-.88-3.85,88.84,88.84,0,0,1,8.89,1.2q13.9,2.94,15.68,3.23c1.18.2,4,.59,8.57,1.2q-5,8.57-4.7,23.08c-.62-.39-1.12-.68-1.51-.88Q459.54,360.39,453.64,358Zm218.18,21.89q3.81-.29,10-6.79-1.8,3.56.88,5.92a15.09,15.09,0,0,0,1.77,1.48,6.27,6.27,0,0,1-.87,2.07,25.68,25.68,0,0,1-7.78,10.26A22.43,22.43,0,0,1,662,397.1a47.43,47.43,0,0,1-10.93-1.19c-.23-2.35-.35-5.31-.35-8.86h.93c.91,0,1.92,0,3,.13.54,0,1.1.1,1.69.16a31.5,31.5,0,0,0,4.75-.29,5.86,5.86,0,0,0,1.78-.29h.29l4.43-1.52,1.34-1,.44-.44A9.94,9.94,0,0,0,671.82,379.91Zm4.14-9.18a10.43,10.43,0,0,1,4.75-3.82c0,.2.19.49.58.88.58.4.87.71.87.9a19.11,19.11,0,0,1-4.43,3.56,28.72,28.72,0,0,1-4.75,2.36A16.86,16.86,0,0,0,676,370.73Zm-274.75-.58a3.89,3.89,0,0,1,1.49.87q.9,5.94,8,9.5a20.94,20.94,0,0,0,5,1.78l5.34,1.19h4.13a17,17,0,0,0,2.07-.61v.61a.26.26,0,0,0-.29.3l-.29.29a5,5,0,0,1-.29,1.16,14.82,14.82,0,0,1-2.95.29h-5.65q-11.84-.28-19.84-5-5.62-3.56-7.09-7.11a5,5,0,0,0,0-4.72v-.29l4.14,1.75A8.23,8.23,0,0,0,401.21,370.15Z"/><path class="cls-23" d="M667.07,423.45a74.29,74.29,0,0,0-5.63,7.11l-1.34,2q-1.85,2.7-4,5.71-4-5.37-5.78-8.33c-.06-.09-.11-.18-.16-.27a.25.25,0,0,1,.29-.29q9.79-11,11.28-19.52a.84.84,0,0,0,.58-.32,2,2,0,0,1,.9.9q.87,1.17,3.56,8c2,4.35,2.94,6.81,2.94,7.4a3,3,0,0,1-.58,1.16l-.29-.29v-.29A22.91,22.91,0,0,0,667.07,423.45Zm-196,219.93-21.62-.88L456,624.73v-.29l1.16,1.16a23.25,23.25,0,0,0,12.15,1.52,21.86,21.86,0,0,0,7.11-2.1,2.3,2.3,0,0,1,.88-.29,81.31,81.31,0,0,0,10.64-6.79q2.67-2.07,5.91-4.75a6,6,0,0,0,3-5.63q0-4.12-3.84-3.26a8.24,8.24,0,0,1-1.75.29,11.2,11.2,0,0,1-4.46-.29c-1.57-.39-3.35-.87-5.33-1.46a6.64,6.64,0,0,0-2.39-1.48q-8-5.62-11.83-8.31a.91.91,0,0,1,.53-.29h-.53l3.58-9.18,8.25-23.37v-.29L538,562.86l-29.61,82.3ZM646.64,395.62h-1.81a16.88,16.88,0,0,1-2.94-1.78,17.84,17.84,0,0,0-5.3-2.07l-2.28-.41c-1.23-.2-2.35-.37-3.35-.49a5.09,5.09,0,0,0-1.51-.29c1-2,2.09-3.94,3.26-5.92a13,13,0,0,0,1.6.67,24,24,0,0,0,6.41,1.14c4.34.39,7.19.58,8.57.58C648.52,389.79,647.63,392.64,646.64,395.62Zm-13.81,12.79q4.39,1.54,9.06,7a20.75,20.75,0,0,1-.87,5.92,37.11,37.11,0,0,1-1.45,5.7c-.27.88-.59,1.85-.94,2.9v.29c-.2.79-.39,1.49-.59,2.1v.29a26,26,0,0,1-3.73-2.45q-2.12-1.62-4.86-4.08,1.51-2.36.93-3.24c.58-3.16,1.07-6,1.46-8.59l0-.12a2.51,2.51,0,0,0,.24-1v-1.19c.19,0,.29-.11.29-.32a2.3,2.3,0,0,0,.29-.88v-.87a8.47,8.47,0,0,1,.06-.85C632.79,408.82,632.81,408.62,632.83,408.41Z"/><path class="cls-24" d="M671.82,379.91a9.94,9.94,0,0,1-2.39,3.93,8.44,8.44,0,0,0,2.07-3.93Zm-4.75,43.54a22.91,22.91,0,0,1,1.78,2.94v.29C668.05,425.32,667.46,424.24,667.07,423.45ZM632.77,409a8.47,8.47,0,0,0-.06.85v.87a2.3,2.3,0,0,1-.29.88c0,.21-.1.32-.29.32A22.65,22.65,0,0,0,632.77,409Zm-.88,5.16a3.65,3.65,0,0,0,.24-1.19v.14A2.51,2.51,0,0,1,631.89,414.15Zm-1.22-5.8.29-.29a16.91,16.91,0,0,0,2-.87,3.23,3.23,0,0,1-.09.81.18.18,0,0,1,0,.09,1,1,0,0,1-.18.26v-.87A15.44,15.44,0,0,0,630.67,408.35Zm-1.3,67c0,.07,0,.13.08.19l-.06-.09A.36.36,0,0,0,629.37,475.36Zm0-.08a.46.46,0,0,0-.07-.14c-.74-1.86-1.26-3.21-1.57-4.05a55.59,55.59,0,0,1-1.6-6.41q.72,3.27,1.92,7C628.43,472.82,628.88,474,629.34,475.28ZM390.86,368.4v.29l-.61-.61A.82.82,0,0,1,390.86,368.4ZM402.7,371a3.89,3.89,0,0,0-1.49-.87,1.82,1.82,0,0,0,1.19-.29h.3Z"/><polygon class="cls-25" points="630.96 408.06 630.67 408.35 630.38 408.35 630.38 408.06 630.96 408.06"/><path class="cls-26" d="M732.49,549l3.82-11.57c-.58,3.15-1.17,6-1.75,8.6A35,35,0,0,1,732.49,549Z"/><path class="cls-27" d="M635.68,597.51,618.2,583.29c-.2-3.15-.29-6.4-.29-9.76.4.59.82,1.17,1.25,1.73A38.2,38.2,0,0,0,635,587.46c.43.21.87.4,1.32.58C636.08,590.6,635.88,593.76,635.68,597.51Z"/><path class="cls-28" d="M591.56,586.55a.92.92,0,0,0,.61.29.93.93,0,0,1-.29.62Z"/><path class="cls-29" d="M681.87,792a8.65,8.65,0,0,1-.29-1.78V787A40.47,40.47,0,0,1,681.87,792Z"/><path class="cls-30" d="M342.9,416.05c-.6.79-1.2,1.58-1.78,2.36l-2.07,2.06C340,419.31,341.32,417.83,342.9,416.05Zm5-4.75a10.08,10.08,0,0,1-1.49,1.19q1.14-1,2.28-1.92A9.11,9.11,0,0,0,347.94,411.3Zm17.75-19.21a.83.83,0,0,1,.29-.61v.29Zm1.48-7.43c-.19,1.2-.4,2.29-.61,3.26a2.85,2.85,0,0,1-.29,1.2A27.5,27.5,0,0,1,367.17,384.66Z"/><path class="cls-31" d="M447.11,566.74c.19.77.39,1.76.58,3v.58c.39,1.73.7,3.25.93,4.55l.09.52q.09.61.18,1.14a.85.85,0,0,1,.29.58v.29a12.73,12.73,0,0,0,2.94,8c-1.36.58-2.64,1.16-3.85,1.75a1.1,1.1,0,0,0-.87.32,2.72,2.72,0,0,0-.29-1.2c-.2-1.18-.4-2.27-.61-3.26,0-.2-.1-.29-.3-.29a9.59,9.59,0,0,0-.29-2.36.89.89,0,0,1-.29-.62V569.07A18.51,18.51,0,0,0,447.11,566.74Z"/><path class="cls-32" d="M447.4,566.12l1.22,8.72c-.23-1.3-.54-2.82-.93-4.55v-.58c-.19-1.21-.39-2.2-.58-3A1,1,0,0,0,447.4,566.12Z"/><path class="cls-33" d="M445,569.71c.38-.23.58-.44.58-.61v.32a.22.22,0,0,1-.09.17A.76.76,0,0,1,445,569.71Z"/><path class="cls-34" d="M831.66,699.55c-.36,0-.91,0-15.73-2.07l-18.66-2.65c-9.68-1.33-15.44-2.11-17.1-2.33l-8.3-1.07a60.49,60.49,0,0,0-6.54-.54,8,8,0,0,0-3.26.44c-.4.18-1.4.65-1.66,3a2.7,2.7,0,0,1-5.36-.61c.5-4.44,2.84-6.42,4.71-7.29a13,13,0,0,1,5.57-1,65.15,65.15,0,0,1,7.2.58l8.33,1.08c1.68.21,7.45,1,17.16,2.33q2.85.42,18.66,2.65c11.87,1.66,14.54,2,15,2a24.69,24.69,0,0,0,15.54-5.53c4.72-3.64,7.48-7.41,8.18-11.18.75-4.21-1.12-5.8-2.84-6.72-2.82-1.49-5.05-1.86-6.64-1.11a60.72,60.72,0,0,0-8.42,5.08c-4,2.78-7,4.07-9.35,4.07-1.46,0-6.22-.56-6.22-7.77a5.37,5.37,0,0,1,.13-1.1,43.46,43.46,0,0,0-4.43,2.51l0,0a10.62,10.62,0,0,1-5.54,1.93,7.9,7.9,0,0,1-4.91-2.12,8.62,8.62,0,0,1-3.38-6.84,7.21,7.21,0,0,1,.33-1.91c-2.23,1-4.89,2.26-8,3.91-5.23,2.8-9.17,4.16-12.06,4.16-4.42,0-8.07-1.18-10.83-3.52a12.06,12.06,0,0,1-3.42-4.61c-2.23.65-4.37,1.24-6.39,1.78a26.2,26.2,0,0,1-4.13.95,2.69,2.69,0,0,1-.52-5.36c.17,0,.81-.17,3.28-.81,2.2-.58,4.57-1.24,7-2a32.51,32.51,0,0,1,5.26-14.55c4.45-7.08,10.07-10.67,16.7-10.67a11.26,11.26,0,0,1,7,1.91,6.84,6.84,0,0,1,2.69,5.65c0,5-2.86,9.54-8.5,13.56-4.28,3-10,5.68-17.21,7.94a7.37,7.37,0,0,0,1.69,2.07c1.78,1.5,4.18,2.23,7.34,2.23,1.34,0,4.08-.61,9.51-3.52,5.94-3.19,10.38-5.14,13.59-6a2.7,2.7,0,0,1,3.38,2.69,17.8,17.8,0,0,1-.81,4s0,0,0,.06c-.43,1.4-.55,1.94-.58,2.1a3.27,3.27,0,0,0,1.4,2.56,3.66,3.66,0,0,0,1.52.91,5.67,5.67,0,0,0,2.63-1.09,57.55,57.55,0,0,1,10.08-5.08,2.61,2.61,0,0,1,.92-.29l1.13-.26a2.69,2.69,0,0,1,1.52,5.16c-.11.43-.25.93-.43,1.54a.19.19,0,0,1,0,.07,15.86,15.86,0,0,0-.57,2.05c0,2.3.53,2.3.83,2.3s2.09-.22,6.29-3.11a63.8,63.8,0,0,1,9.18-5.52c3.19-1.52,7.06-1.11,11.47,1.22,3.27,1.74,6.89,5.31,5.62,12.44-1,5.14-4.39,10-10.19,14.49A30.33,30.33,0,0,1,831.66,699.55Zm-40.57-61.34c-4.72,0-8.69,2.66-12.14,8.15a29.23,29.23,0,0,0-4.15,9.95,55.41,55.41,0,0,0,14.36-6.77c4.13-2.94,6.23-6,6.23-9.16a1.49,1.49,0,0,0-.57-1.36C794.33,638.65,793.28,638.21,791.09,638.21Z"/></svg>